<svg width="270" height="144" fill="none" xmlns="http://www.w3.org/2000/svg"><path fill-rule="evenodd" clip-rule="evenodd" d="m191.847 79.649.234 23.452-3.635.557-.016-23.527-5.852 1.54c-1.014 15.839-.874 24.956 3.686 39.02l1.925.415.074-16.502 45.695-.379-.045 39.775h7.433l1.444-15.35c1.907 2.274 5.808 12.033 6.659 15.35h19.999c-.656-2.66-.752-7.954.152-10.169-4.932-5.218-7.802-25.251-10.331-35.11-2.225-8.674-.853-10.343-9.127-13.48-3.881-1.471-13.248-5.692-16.6-5.645l.553 23.74-3.991-.011-.232-25.321-4.156-1.764-5.336 10.327c-.422.89-.436 1.053-.973 1.884-.556.862-.605.815-1.109 1.345-1.095-.68-2.35-1.469-3.111-2.128l-2.33-2.582-.983.163c-1.325 2.147-3.321 3.827-5.924 4.435-2.097-3.237-4.349-9.367-6.362-11.155.576-1.195-1.009-1.086 1.305-.775-1.811-.953-1.022-.752-1.883-1.306l.057-4.13-.498 4.213c-3.146.946-5.027.952-6.722 3.117Z" fill="#CCDCDB"/><path fill-rule="evenodd" clip-rule="evenodd" d="M120.403 120.038c8.139 7.135 47.877 9.375 54.345-.251-8.196-.66-13.041-1.382-14.589-8.468-2.551-.477-3.385-1.993-5.079-3.572l-14.238-12.021c-.955-1.009-.283-.235-1.128-1.456 11.605 1.812 8.481 2.226 18.452-1.44 0 1.11-.488 17.363.393 13.059l.079-14.257c2.358-1.068 3.639-2.125 5.237-4.224 3.298-4.328 4.778-6.36 7.04-11.82 4.676-11.285 2.229 9.16 6.515-19.1-4.609 1.331-2.885 3.19-3.871 1.772-.113-.162-.376.226-.578.31-.589-2.288-1.713-3.422-3.026-5.412l-47.428-.204c-1.93 6.037-1.841 4.12-3.205 4.39l-1.076.139c-.084-.18-.399-.005-.568.084.803 4.175.97 7.434 1.579 11.113.906 5.475 2.45 1.118 4.936 4.566.571.791 2.591 10.37 10.53 17.082 3.534 2.989 2.671 4.747 2.401 10.106-.158 3.126-.536 8.161-1.356 11.108-2.212 7.938-10.143 7.678-15.366 8.497l.001-.001Z" fill="#F8D09F"/><path fill-rule="evenodd" clip-rule="evenodd" d="M106.037 121.511c-2.147.933-4.004 2.326-6.229 2.502-2.87 3.47-4.607 4.289-7.775 8.427-2.344 3.059-3.902 7.178-4.602 11.559H207.81c-.766-3.556-1.397-5.338-2.945-8.388l-4.319-6.565c-2.696-3.42-8.029-5.641-12.357-7.942l-1.924-.415-11.518-.904c-6.468 9.626-46.206 7.386-54.345.251-6.078-.908-9.254.331-14.365 1.474v.001ZM108.795 39.393c-2.27.594-1.202-.759-1.337 1.466l-.053 11.543 1.737.452 13.384.098 47.429.205 14.573-.184 2.853-.101.349-12.739c-.957-.6-1.711-.63-2.536-2.643-1.38-3.369-2.014-14.094-11.692-23.707C166.235 6.565 157.014-.427 145.91.02c1.856 1.328.491.483 1.373 1.616l-.158 38.483 19.673.004c2.935.3 3.224.933 2.918 3.914-3.915 1.266-45.384.523-53.174.353l-3.36-4.998h-4.387v.001Z" fill="#F37821"/><path fill-rule="evenodd" clip-rule="evenodd" d="M.401 142.537V144h24.903c-.93-2.601-3.817-8.598-4.003-10.235-.303-2.668 1.38-8.344 1.67-12.135 2.798 5.94 3.323 15.518 5.462 22.37h23.382c-.853-5.887-6.428-13.727-6.585-19.814 2.43-.893 6.112-2.66 7.353-4.155-1.327-1.665-8.654-6.889-10.335-7.989 1.73-3.003 5.256-16.891 6.71-19.439-6.606 1.608-31.263 8.932-37.046 12.169-3.735 2.092-5.356 13.657-6.559 18.152-1.05 3.921-3.501 17.226-4.953 19.613H.4Z" fill="#262262" fill-opacity=".8"/><path fill-rule="evenodd" clip-rule="evenodd" d="M50.425 52.019c-3.262-.867-1.99-1.3-4.872-1.924l1.935 12.553c2.486 1.348.685.1 2.923.785.179.055.447.154.592.2.145.047.48.402.584.228.106-.174.414.115.583.24-.043 6.837-.472 6.661 2.42 11.923 1.767 3.213.429 7.228.44 11.728 1.948 2.546 12.7 9.979 15.08 10.646-.811-2.156-1.688-3.05-2.827-4.585l-9.146-13.036c1.924.824.819.211 2.632 1.454 2.024 1.385 3.539 3.009 7.135 3.087 16.345.354 11.104 1.416 23.197-9.545 1.291-4.667 1.315-6.053 1.315-11.671 4.86-2.785 2.371 1.802 5.013-13.463-2.927-.278-.84-.317-3.638 1.147-.453 2.273-.547 4.461-2.11 5.672l-.05-7.059c-1.49-1.829.076-1.134-4-1.244l-35.16.037.226 8.046c-2.09-1.378-1.908-2.316-2.271-5.22Z" fill="#F8D09F"/><path fill-rule="evenodd" clip-rule="evenodd" d="M188.194 121.106c4.329 2.3 9.662 4.523 12.356 7.942l4.32 6.565c1.548 3.05 2.178 4.831 2.945 8.387h26.104l.045-39.774-45.695.378-.075 16.503v-.001Z" fill="#262262" fill-opacity=".8"/><path fill-rule="evenodd" clip-rule="evenodd" d="m128.48 8.251 2.612 23.785c-1.404-2.791-6.828-19.617-6.741-21.529-1.264 2.153-3.467 3.133-5.261 5.25-1.082 1.277-3.664 5.425-4.517 7.065-3.521 6.765-3.688 9.948-5.775 16.57l4.386-.001 3.36 4.998c7.791.17 49.261.913 53.175-.353.306-2.98.017-3.615-2.918-3.915l-19.674-.003.159-38.483c-.882-1.134.483-.289-1.373-1.616-3.773.254-7.111 1.023-10.278 2.55-3.639 1.752-5.06 3.1-7.155 5.683Z" fill="#F37821" fill-opacity=".8"/><path fill-rule="evenodd" clip-rule="evenodd" d="M111.701 96.42c-.274 4.208-.767 9.336-1.749 13.339-1.186 4.832-2.887 7.917-3.912 11.752 5.112-1.144 8.287-2.382 14.365-1.474 5.222-.818 13.155-.558 15.366-8.497.821-2.946 1.198-7.981 1.356-11.107.27-5.36 1.133-7.118-2.401-10.106-7.938-6.712-9.959-16.291-10.53-17.083-2.487-3.448-4.031.91-4.937-4.565-.609-3.68-.775-6.938-1.578-11.114.169-.09.484-.263.568-.083l1.076-.139c1.364-.27 1.275 1.647 3.205-4.39l-13.384-.099c1.797 13.168 2.873 30.254 2.555 43.567ZM158.56 105.887c1.07 1.96.447.852 1.037 3.149.499 1.942-.36.186.563 2.282 1.547 7.086 6.393 7.808 14.588 8.468l11.518.904c-4.56-14.064-4.701-23.182-3.686-39.02l1.95-28.697-14.573.184c1.312 1.989 2.436 3.123 3.025 5.41.202-.083.465-.47.578-.308.986 1.417-.738-.44 3.871-1.773-4.286 28.261-1.839 7.815-6.515 19.1-2.262 5.46-3.743 7.492-7.04 11.82-1.598 2.099-2.878 3.156-5.237 4.224l-.079 14.257Z" fill="#53322C"/><path fill-rule="evenodd" clip-rule="evenodd" d="M45.18 39.475c-1.64 1.953-.858 6.57-1.066 9.477l5.656.254 2.703-.013 35.16-.038c4.076.11 2.51-.584 4 1.245-.175-1.964.2-1.107 2.563-1.209l5.805-.083c.232-3.504.751-6.117-.617-9.13-.003-.009-.598-1.002-.805-1.466-1.72-3.85-.71-6.16-6.223-14.069-2.76-3.958-4.568-4.314-8.384-7.603-3.79-3.267-6.41-4.375-12.533-4.549 1.526 5.047.806 21.172.426 27.92 3.771.11 13.63-1.45 15.792 1.375-.732 2.183 2.892 1.85-8.082 1.761l-29.421-.032c-1.412-3.768-1.034-3.04-4.974-3.84Z" fill="#F37821"/><path fill-rule="evenodd" clip-rule="evenodd" d="m195.145 49.69-3.229-1.16 1.134 9.121c.855.34 1.481.335 2.08.543l1.841.823c-.798 8.121 2.404 6.438 2.096 13.301l-.056 4.13c.861.554.072.353 1.882 1.305 3.572 2.242 4.008 3.662 8.484 5.4-2.163-4.062-6.234-8.156-8.016-11.983 4.738 2.6 7.642 3.489 14.77 2.95 2.933-.221 6.984-4.645 8.643-7.334l.63-1.07c1.033-2.156.291-2.543.56-4.524.786-5.785.117-1.14 1.87-3.595 1.522-2.132.559-4.693 1.917-7.777-.992-1.27 1.584-1.607-1.924-.786l-1.844 4.724-.397-6.502-28.544.06.11 6.824c-1.68-1.586-1.421-1.385-2.007-4.45Z" fill="#F8D09F"/><path fill-rule="evenodd" clip-rule="evenodd" d="M45.176 39.475c3.94.8 3.562.072 4.974 3.84l29.422.032c10.973.09 7.349.422 8.081-1.76-2.161-2.826-12.02-1.266-15.791-1.376.38-6.748 1.1-22.873-.427-27.92-8.214.792-13.072 5.065-17.193 9.08-4.317 4.204-7.002 10.384-9.066 18.104Z" fill="#F37821" fill-opacity=".8"/><path fill-rule="evenodd" clip-rule="evenodd" d="M48.956 92.602c-1.454 2.548-4.98 16.435-6.71 19.438 1.68 1.101 9.008 6.325 10.335 7.989-1.241 1.495-4.923 3.262-7.353 4.156.157 6.086 5.733 13.926 6.585 19.814h12.19l-8.308-51.622-.666-4.625-6.072 4.85h-.001ZM91.054 91.854l-8.296 52.143h4.676c.7-4.382 2.259-8.499 4.602-11.559 3.168-4.138 4.906-4.956 7.775-8.427-2.056-2.241-3.242-1.382-5.156-3.983.651-.805.296-.403 1.135-1.177l2.902-2.203c.129-.095.303-.218.431-.314.128-.095.3-.223.426-.32 1.522-1.177 3.405-2.692 4.885-4.052L98.1 92.199c-.68-.678-4.376-3.323-6.146-4.683l-.069.408-.83 3.93Z" fill="#262262" fill-opacity=".8"/><path fill-rule="evenodd" clip-rule="evenodd" d="M191.045 39.942c-1.403 1.634-.607 4.493-1.128 7.337l4.734.212 2.393-.176 28.544-.06 2.468.153 4.247.037c-.768-8.245 1.138-1.873-1.875-9.997-1.263-3.407-1.885-5.742-4.068-8.35-.883-1.057-1.792-2.036-2.713-3.025-3.398-3.65-7.685-6.015-13.02-6.418l.529 20.892c6.54.819 10.228-1.288 11.598 1.764-3.19 1.662-21.795.699-26.969.723-3.207-1.602.061-1.641-4.74-3.092Z" fill="#F37821"/><path fill-rule="evenodd" clip-rule="evenodd" d="M191.047 39.942c4.802 1.45 1.534 1.49 4.74 3.092 5.175-.024 23.78.938 26.97-.724-1.371-3.05-5.057-.944-11.598-1.763l-.529-20.892c-5.881.739-9.045 3.293-12.713 6.62-4.021 3.649-5.697 8.014-6.869 13.667h-.001Z" fill="#F37821" fill-opacity=".8"/><path fill-rule="evenodd" clip-rule="evenodd" d="M67.06 112.601c2.475 7.594 5.222 4.33 3.61 14.472-.911 5.725-2.01 11.144-2.726 16.928H79.15c-.324-5.188-1.464-11.424-2.344-16.769-.963-5.854.033-9.164 3.266-13.757-.81-3.997-3.882-7.994-5.158-12.106l-2.094.277-5.759 10.956v-.001Z" fill="#F37821"/><path fill-rule="evenodd" clip-rule="evenodd" d="M70.108 98.397c1.582 1.841 2.01.915 2.709 3.246l2.094-.278c-.077-1.562-.212-.593.938-1.716.372-.363 1.692-1.276 2.07-1.558 1.76-1.317 2.537-1.806 4.673-3.363 3.353-2.444 6.302-4.496 9.29-6.803l.07-.409-.853-11.744c-12.093 10.962-6.851 9.899-23.197 9.545-3.596-.078-5.111-1.701-7.134-3.087-1.814-1.243-.708-.63-2.633-1.453l9.146 13.036c1.139 1.534 2.016 2.428 2.828 4.584h-.001Z" fill="#E4AC93"/><path fill-rule="evenodd" clip-rule="evenodd" d="M64.004 143.998h3.941c.716-5.782 1.815-11.203 2.726-16.928 1.613-10.141-1.135-6.877-3.61-14.471-1.053 2.197-.17 1.37-2.016 3.172-2.16-3.929-7.284-21.713-9.348-23.394l8.307 51.621ZM80.074 113.474c-3.233 4.593-4.23 7.903-3.266 13.758.88 5.343 2.02 11.58 2.344 16.768h3.608l8.296-52.143-4.53 11.915c-1.208 3.523-3.198 8.771-3.912 12.343l-2.54-2.641Z" fill="#CCDCDB"/><path fill-rule="evenodd" clip-rule="evenodd" d="M99.814 124.014c2.225-.174 4.081-1.569 6.228-2.502 1.025-3.835 2.726-6.919 3.912-11.752.982-4.002 1.476-9.131 1.749-13.338l-13.6-4.22 6.334 19.763c-1.48 1.359-3.364 2.874-4.885 4.052-.126.097-.299.224-.426.32-.128.096-.303.219-.431.313l-2.903 2.203c-.838.775-.483.373-1.135 1.177 1.914 2.601 3.1 1.742 5.157 3.984Z" fill="#262262" fill-opacity=".8"/><path fill-rule="evenodd" clip-rule="evenodd" d="M74.917 101.368c1.276 4.112 4.347 8.11 5.158 12.107l2.54 2.641c.715-3.572 2.704-8.821 3.912-12.344l4.53-11.915.83-3.93c-2.987 2.308-5.936 4.36-9.29 6.803-2.135 1.557-2.912 2.046-4.672 3.363-.378.282-1.698 1.195-2.07 1.559-1.15 1.122-1.016.153-.938 1.716ZM55.698 92.377c2.064 1.681 7.188 19.466 9.349 23.394 1.846-1.801.963-.975 2.016-3.172l5.76-10.955c-.7-2.331-1.128-1.406-2.71-3.246-2.38-.667-13.132-8.101-15.08-10.646l.665 4.625Z" fill="#FAFAFA"/><path fill-rule="evenodd" clip-rule="evenodd" d="M209.379 83.155c.746 1.56.787 1.092 2.498 2.095l.983-.162c4.664-2.481 8.291-5.876 12.859-8.846-.795-3.845-.929-6.648-.312-10.524l-.631 1.07c-1.659 2.688-5.71 7.112-8.642 7.334-7.129.539-10.033-.35-14.771-2.95 1.782 3.826 5.853 7.92 8.016 11.982ZM160.16 111.317c-.923-2.096-.064-.34-.563-2.282-.59-2.297.034-1.189-1.037-3.149-.881 4.305-.393-11.948-.393-13.059-9.972 3.666-6.847 3.252-18.452 1.44.845 1.222.172.447 1.127 1.456l14.239 12.021c1.693 1.579 2.528 3.096 5.079 3.572v.001Z" fill="#E4AC93"/><path fill-rule="evenodd" clip-rule="evenodd" d="M233.542 79.596c-1.907-1.66-1.166-1.335-3.668-1.592l.231 25.321 3.991.011-.553-23.74h-.001ZM188.437 80.13l.015 23.527 3.635-.557-.234-23.452c-2.28-.337-.804-.299-3.416.482ZM25.301 143.998h3.129c-2.14-6.852-2.665-16.43-5.462-22.37-.29 3.791-1.973 9.467-1.67 12.135.187 1.638 3.074 7.634 4.003 10.235Z" fill="#262262" fill-opacity=".8"/><path fill-rule="evenodd" clip-rule="evenodd" d="M241.352 144h8.103c-.851-3.317-4.752-13.076-6.658-15.35L241.352 144Z" fill="#262262" fill-opacity=".6"/><path fill-rule="evenodd" clip-rule="evenodd" d="M124.35 10.51c-.087 1.912 5.337 18.737 6.741 21.529l-2.612-23.785-4.129 2.256Z" fill="#F37821"/><path fill-rule="evenodd" clip-rule="evenodd" d="M211.878 85.249c-1.711-1.003-1.751-.536-2.498-2.095-4.476-1.738-4.912-3.158-8.483-5.4-2.314-.31-.729-.42-1.305.775 2.014 1.788 4.265 7.918 6.362 11.155 2.603-.609 4.599-2.288 5.924-4.435ZM212.861 85.088l2.33 2.581c.762.66 2.016 1.448 3.111 2.129.504-.531.553-.484 1.11-1.346.536-.83.551-.993.973-1.884l5.335-10.326c-4.569 2.97-8.196 6.365-12.859 8.846Z" fill="#FAFAFA"/><path fill-rule="evenodd" clip-rule="evenodd" d="M50.423 52.019c.363 2.904.181 3.842 2.272 5.22l-.226-8.046-2.703.014.657 2.812ZM93.79 51.788l.404-2.596c-2.364.102-2.738-.755-2.564 1.209l.05 7.058c1.563-1.21 1.657-3.4 2.11-5.671ZM195.151 49.69c.585 3.064.326 2.864 2.007 4.45l-.111-6.824-2.393.176.498 2.198h-.001ZM227.831 49.034l.227-1.624-2.468-.154.397 6.502 1.844-4.724Z" fill="#030029"/></svg>