<svg width="270" height="144" viewBox="0 0 270 144" fill="none" xmlns="http://www.w3.org/2000/svg">
<path fill-rule="evenodd" clip-rule="evenodd" d="M191.847 79.6487L192.081 103.101L188.446 103.658L188.43 80.1309L182.578 81.6714C181.564 97.5098 181.704 106.627 186.264 120.691L188.189 121.106L188.263 104.604L233.958 104.225L233.913 144H241.346L242.79 128.65C244.697 130.924 248.598 140.683 249.449 144H269.448C268.792 141.34 268.696 136.046 269.6 133.831C264.668 128.613 261.798 108.58 259.269 98.7207C257.044 90.047 258.416 88.3783 250.142 85.2413C246.261 83.77 236.894 79.5492 233.542 79.5959L234.095 103.336L230.104 103.325L229.872 78.0037L225.716 76.2404L220.38 86.5669C219.958 87.4571 219.944 87.6199 219.407 88.4512C218.851 89.3128 218.802 89.2655 218.298 89.7962C217.203 89.1155 215.948 88.3273 215.187 87.6678L212.857 85.0865L211.874 85.2486C210.549 87.3958 208.553 89.076 205.95 89.6838C203.853 86.4467 201.601 80.3173 199.588 78.529C200.164 77.334 198.579 77.4433 200.893 77.7536C199.082 76.8008 199.871 77.0024 199.01 76.448L199.067 72.3188L198.569 76.5312C195.423 77.4767 193.542 77.4827 191.847 79.6481L191.847 79.6487Z" fill="#CCDCDB"/>
<path fill-rule="evenodd" clip-rule="evenodd" d="M120.403 120.038C128.542 127.173 168.28 129.413 174.748 119.787C166.552 119.127 161.707 118.405 160.159 111.319C157.608 110.842 156.774 109.326 155.08 107.747L140.842 95.7258C139.887 94.7172 140.559 95.4914 139.714 94.2702C151.319 96.0816 148.195 96.4957 158.166 92.8299C158.166 93.9405 157.678 110.193 158.559 105.889L158.638 91.6318C160.996 90.5637 162.277 89.5071 163.875 87.4085C167.173 83.0796 168.653 81.0478 170.915 75.5882C175.591 64.3028 173.144 84.7488 177.43 56.4877C172.821 57.8194 174.545 59.6775 173.559 58.2602C173.446 58.0981 173.183 58.4855 172.981 58.5693C172.392 56.2818 171.268 55.1475 169.955 53.1582L122.527 52.9536C120.597 58.9913 120.686 57.0743 119.322 57.3445L118.246 57.483C118.162 57.3032 117.847 57.4775 117.678 57.5668C118.481 61.7421 118.648 65.0011 119.257 68.6803C120.163 74.1551 121.707 69.7982 124.193 73.2455C124.764 74.0373 126.784 83.6164 134.723 90.3281C138.257 93.3169 137.394 95.0748 137.124 100.434C136.966 103.56 136.588 108.595 135.768 111.542C133.556 119.48 125.625 119.22 120.402 120.039L120.403 120.038Z" fill="#F8D09F"/>
<path fill-rule="evenodd" clip-rule="evenodd" d="M106.037 121.511C103.89 122.444 102.033 123.837 99.8083 124.013C96.9386 127.483 95.2007 128.302 92.0327 132.44C89.6894 135.499 88.1313 139.618 87.4312 143.999H207.81C207.044 140.443 206.413 138.661 204.865 135.611L200.546 129.046C197.85 125.626 192.517 123.405 188.189 121.104L186.265 120.689L174.747 119.785C168.279 129.411 128.541 127.171 120.402 120.036C114.324 119.128 111.148 120.367 106.037 121.51V121.511Z" fill="#F37821"/>
<path fill-rule="evenodd" clip-rule="evenodd" d="M108.795 39.3933C106.525 39.9872 107.593 38.6343 107.458 40.8592L107.405 52.402L109.142 52.8544L122.526 52.9522L169.955 53.1568L184.528 52.9728L187.381 52.872L187.73 40.1335C186.773 39.5324 186.019 39.5038 185.194 37.4903C183.814 34.1213 183.18 23.3958 173.502 13.7833C166.235 6.56519 157.014 -0.427073 145.91 0.0198488C147.766 1.34786 146.401 0.503205 147.283 1.6363L147.125 40.119L166.798 40.1226C169.733 40.4226 170.022 41.0559 169.716 44.0374C165.801 45.3029 124.332 44.5596 116.542 44.3902L113.182 39.3921L108.795 39.3927V39.3933Z" fill="#F37821"/>
<path fill-rule="evenodd" clip-rule="evenodd" d="M0.401117 142.537V144H25.3037C24.3746 141.399 21.4872 135.402 21.3014 133.765C20.9978 131.097 22.6804 125.421 22.9707 121.63C25.7688 127.57 26.2941 137.148 28.4327 144H51.8148C50.9622 138.113 45.3866 130.273 45.23 124.186C47.6601 123.293 51.3417 121.526 52.5829 120.031C51.2561 118.366 43.9287 113.142 42.2478 112.042C43.9772 109.039 47.504 95.1509 48.9577 92.6035C42.3523 94.2109 17.6945 101.535 11.9118 104.772C8.17671 106.864 6.55601 118.429 5.35309 122.924C4.30379 126.845 1.85179 140.15 0.399902 142.537H0.401117Z" fill="#262262" fill-opacity="0.8"/>
<path fill-rule="evenodd" clip-rule="evenodd" d="M50.4252 52.0189C47.1631 51.1524 48.4359 50.7182 45.5527 50.0946L47.488 62.6485C49.974 63.9965 48.1729 62.7487 50.4106 63.433C50.5897 63.4877 50.8575 63.5867 51.0026 63.6334C51.1484 63.6802 51.4823 64.0348 51.5874 63.8611C51.6931 63.6868 52.0009 63.9759 52.1697 64.1016C52.1272 70.9384 51.6979 70.7623 54.5902 76.024C56.3566 79.2368 55.0189 83.2524 55.0298 87.752C56.9784 90.2975 67.7294 97.7307 70.1104 98.398C69.2985 96.2417 68.4217 95.3473 67.2831 93.8134L58.137 80.7774C60.0607 81.6008 58.9555 80.9881 60.7693 82.2305C62.7926 83.6162 64.3077 85.2399 67.9037 85.3176C84.2491 85.6717 79.0081 86.7337 91.1011 75.7732C92.3921 71.106 92.4158 69.7197 92.4158 64.1016C97.2767 61.3174 94.787 65.9039 97.4285 50.6387C94.5016 50.3612 96.5893 50.3223 93.7912 51.7863C93.3376 54.0586 93.2435 56.2471 91.681 57.4579L91.6313 50.3994C90.1417 48.5704 91.7072 49.2651 87.6314 49.1546L52.4715 49.1922L52.6974 57.2381C50.6067 55.8596 50.7889 54.9221 50.4258 52.0177L50.4252 52.0189Z" fill="#F8D09F"/>
<path fill-rule="evenodd" clip-rule="evenodd" d="M188.194 121.106C192.523 123.406 197.856 125.629 200.55 129.048L204.87 135.613C206.418 138.663 207.048 140.444 207.815 144H233.919L233.964 104.226L188.269 104.604L188.194 121.107L188.194 121.106Z" fill="#262262" fill-opacity="0.8"/>
<path fill-rule="evenodd" clip-rule="evenodd" d="M128.48 8.25139L131.092 32.036C129.688 29.2446 124.264 12.4194 124.351 10.5073C123.087 12.6599 120.884 13.64 119.09 15.7568C118.008 17.0338 115.426 21.1818 114.573 22.8219C111.052 29.5865 110.885 32.7702 108.798 39.3914L113.184 39.3908L116.544 44.3889C124.335 44.5583 165.805 45.3016 169.719 44.0361C170.025 41.0552 169.736 40.4213 166.801 40.1213L147.127 40.1177L147.286 1.635C146.404 0.501303 147.769 1.34596 145.913 0.0185547C142.14 0.272985 138.802 1.04174 135.635 2.56832C131.996 4.32139 130.575 5.66945 128.48 8.252V8.25139Z" fill="#F37821" fill-opacity="0.8"/>
<path fill-rule="evenodd" clip-rule="evenodd" d="M111.701 96.4209C111.427 100.628 110.934 105.756 109.952 109.759C108.766 114.591 107.065 117.676 106.04 121.511C111.152 120.367 114.327 119.129 120.405 120.037C125.627 119.219 133.56 119.479 135.771 111.54C136.592 108.594 136.969 103.559 137.127 100.433C137.397 95.0734 138.26 93.3155 134.726 90.3267C126.788 83.615 124.767 74.0359 124.196 73.2441C121.709 69.7962 120.165 74.1537 119.259 68.6789C118.65 64.9997 118.484 61.7407 117.681 57.5654C117.85 57.4755 118.165 57.3019 118.249 57.4816L119.325 57.3431C120.689 57.0729 120.6 58.99 122.53 52.9523L109.146 52.8545C110.943 66.0223 112.019 83.108 111.701 96.4215V96.4209Z" fill="#53322C"/>
<path fill-rule="evenodd" clip-rule="evenodd" d="M158.56 105.887C159.63 107.847 159.007 106.739 159.597 109.036C160.096 110.978 159.237 109.222 160.16 111.318C161.707 118.404 166.553 119.126 174.748 119.786L186.266 120.69C181.706 106.626 181.565 97.5082 182.58 81.6704L184.53 52.9727L169.957 53.1566C171.269 55.1459 172.393 56.2802 172.982 58.5677C173.184 58.4839 173.447 58.0971 173.56 58.2586C174.546 59.6759 172.822 57.8184 177.431 56.4861C173.145 84.7472 175.592 64.3012 170.916 75.5866C168.654 81.0462 167.173 83.078 163.876 87.4069C162.278 89.5049 160.998 90.5621 158.639 91.6302L158.56 105.887H158.56Z" fill="#53322C"/>
<path fill-rule="evenodd" clip-rule="evenodd" d="M45.1792 39.4748C43.5397 41.4277 44.3218 46.0451 44.1142 48.9525L49.7699 49.2063L52.4727 49.1929L87.6326 49.1553C91.7089 49.2658 90.1429 48.5711 91.6324 50.4001C91.4582 48.4357 91.8322 49.2931 94.1962 49.1911L100.001 49.1085C100.233 45.6036 100.752 42.9907 99.3843 39.9776C99.3807 39.9691 98.7862 38.9757 98.5792 38.5117C96.8589 34.6613 97.8699 32.3526 92.3562 24.4434C89.5964 20.4849 87.788 20.129 83.9722 16.8403C80.1813 13.5734 77.5623 12.4652 71.439 12.2915C72.9649 17.3382 72.2454 33.4632 71.8652 40.2108C75.6361 40.3213 85.4951 38.7613 87.6569 41.5862C86.9246 43.7691 90.5485 43.4364 79.5752 43.3471L50.1537 43.3149C48.7419 39.5465 49.1202 40.2757 45.1798 39.4754L45.1792 39.4748Z" fill="#F37821"/>
<path fill-rule="evenodd" clip-rule="evenodd" d="M195.145 49.6896L191.916 48.5298L193.05 57.651C193.905 57.9911 194.531 57.9856 195.13 58.1939L196.971 59.0167C196.173 67.1384 199.375 65.4552 199.067 72.3181L199.011 76.4473C199.872 77.0017 199.083 76.8007 200.893 77.7528C204.465 79.9953 204.901 81.415 209.377 83.1529C207.214 79.0906 203.143 74.9966 201.361 71.1698C206.099 73.7706 209.003 74.659 216.131 74.1204C219.064 73.8987 223.115 69.4751 224.774 66.7862L225.404 65.7169C226.437 63.56 225.695 63.1732 225.964 61.1918C226.75 55.4073 226.081 60.0514 227.834 57.597C229.356 55.465 228.393 52.9043 229.751 49.8196C228.759 48.5505 231.335 48.2129 227.827 49.0344L225.983 53.7575L225.586 47.2559L197.042 47.3166L197.152 54.14C195.472 52.554 195.731 52.7549 195.145 49.6896Z" fill="#F8D09F"/>
<path fill-rule="evenodd" clip-rule="evenodd" d="M45.1763 39.4754C49.1166 40.2757 48.7383 39.5465 50.1501 43.3149L79.5717 43.3471C90.5449 43.4364 86.921 43.7691 87.6533 41.5862C85.4916 38.7613 75.6326 40.3213 71.8616 40.2108C72.2424 33.4632 72.9619 17.3382 71.4354 12.2915C63.2207 13.0833 58.3635 17.3564 54.2422 21.3708C49.9248 25.5753 47.2402 31.7545 45.1763 39.4754Z" fill="#F37821" fill-opacity="0.8"/>
<path fill-rule="evenodd" clip-rule="evenodd" d="M48.956 92.6019C47.5023 95.1498 43.9755 109.037 42.2461 112.04C43.9269 113.141 51.2544 118.365 52.5812 120.029C51.34 121.524 47.6583 123.291 45.2282 124.185C45.3849 130.271 50.9605 138.111 51.813 143.999H64.0026L55.695 92.3772L55.0295 87.752L48.9566 92.6013L48.956 92.6019Z" fill="#262262" fill-opacity="0.8"/>
<path fill-rule="evenodd" clip-rule="evenodd" d="M91.0544 91.8543L82.7578 143.997H87.4341C88.1348 139.615 89.693 135.498 92.0357 132.438C95.2036 128.3 96.9415 127.482 99.8113 124.011C97.7552 121.77 96.5687 122.629 94.6547 120.028C95.3062 119.223 94.951 119.625 95.7896 118.851L98.6922 116.648C98.8209 116.553 98.9952 116.43 99.1233 116.334C99.2508 116.239 99.4233 116.111 99.549 116.014C101.071 114.837 102.954 113.322 104.434 111.962L98.1001 92.1992C97.42 91.5209 93.7244 88.8764 91.9543 87.5156L91.8851 87.9243L91.055 91.8543H91.0544Z" fill="#262262" fill-opacity="0.8"/>
<path fill-rule="evenodd" clip-rule="evenodd" d="M191.045 39.9423C189.642 41.5757 190.438 44.4352 189.917 47.2794L194.651 47.4907L197.044 47.3153L225.588 47.2545L228.056 47.4082L232.303 47.4446C231.535 39.2002 233.441 45.5725 230.428 37.4484C229.165 34.0406 228.543 31.7058 226.36 29.0971C225.477 28.0411 224.568 27.0623 223.647 26.0725C220.249 22.4236 215.962 20.0579 210.627 19.6553L211.156 40.5471C217.696 41.3656 221.384 39.2591 222.754 42.3105C219.564 43.9731 200.959 43.01 195.785 43.0337C192.578 41.4324 195.846 41.3929 191.045 39.9423Z" fill="#F37821"/>
<path fill-rule="evenodd" clip-rule="evenodd" d="M191.047 39.9423C195.849 41.3929 192.581 41.4324 195.787 43.0337C200.962 43.01 219.567 43.9725 222.757 42.3105C221.386 39.2597 217.7 41.3662 211.159 40.5471L210.63 19.6553C204.749 20.3937 201.585 22.9483 197.917 26.2759C193.896 29.9236 192.22 34.2895 191.048 39.9423H191.047Z" fill="#F37821" fill-opacity="0.8"/>
<path fill-rule="evenodd" clip-rule="evenodd" d="M67.0607 112.601C69.5351 120.195 72.2822 116.931 70.6694 127.073C69.7586 132.798 68.6595 138.217 67.9442 144.001H79.1494C78.8246 138.813 77.6854 132.577 76.8055 127.232C75.8418 121.378 76.8377 118.068 80.0712 113.475C79.2605 109.478 76.1892 105.481 74.9134 101.369L72.819 101.646L67.0601 112.602L67.0607 112.601Z" fill="#F37821"/>
<path fill-rule="evenodd" clip-rule="evenodd" d="M70.108 98.3973C71.6899 100.238 72.1174 99.3124 72.8169 101.643L74.9112 101.365C74.8341 99.803 74.6987 100.772 75.8488 99.6494C76.221 99.2863 77.5411 98.373 77.9188 98.0906C79.6792 96.7736 80.4559 96.2847 82.5921 94.7278C85.9452 92.2837 88.8939 90.2318 91.8821 87.925L91.9513 87.5163L91.0994 75.7725C79.0064 86.7336 84.248 85.6709 67.902 85.3169C64.3059 85.2392 62.7909 83.6155 60.7676 82.2298C58.9544 80.9874 60.0596 81.6001 58.1353 80.7767L67.2814 93.8127C68.4199 95.3466 69.2968 96.241 70.1086 98.3973H70.108Z" fill="#E4AC93"/>
<path fill-rule="evenodd" clip-rule="evenodd" d="M64.0037 143.998H67.9452C68.6606 138.216 69.7596 132.795 70.6705 127.07C72.2839 116.929 69.5362 120.193 67.0617 112.599C66.0082 114.796 66.8911 113.969 65.0451 115.771C62.8846 111.842 57.7608 94.0578 55.6968 92.377L64.0043 143.998H64.0037Z" fill="#CCDCDB"/>
<path fill-rule="evenodd" clip-rule="evenodd" d="M80.0741 113.474C76.8406 118.067 75.8448 121.377 76.8084 127.232C77.6877 132.575 78.8275 138.812 79.1524 144H82.7599L91.0565 91.8569L86.526 103.772C85.3176 107.295 83.3283 112.543 82.6142 116.115L80.0735 113.474H80.0741Z" fill="#CCDCDB"/>
<path fill-rule="evenodd" clip-rule="evenodd" d="M99.8138 124.014C102.039 123.84 103.895 122.445 106.042 121.512C107.067 117.677 108.768 114.593 109.954 109.76C110.936 105.758 111.43 100.629 111.703 96.4219L98.1027 92.2017L104.437 111.965C102.957 113.324 101.073 114.839 99.5515 116.017C99.4258 116.114 99.2534 116.241 99.1258 116.337C98.9983 116.433 98.8234 116.556 98.6947 116.65L95.7921 118.853C94.9536 119.628 95.3088 119.226 94.6572 120.03C96.5712 122.631 97.7578 121.772 99.8138 124.014V124.014Z" fill="#262262" fill-opacity="0.8"/>
<path fill-rule="evenodd" clip-rule="evenodd" d="M74.917 101.368C76.1928 105.48 79.2641 109.478 80.0748 113.475L82.6155 116.116C83.3296 112.544 85.3188 107.295 86.5272 103.772L91.0578 91.8572L91.8879 87.9272C88.9003 90.2347 85.951 92.2866 82.5978 94.7301C80.4616 96.287 79.685 96.7758 77.9246 98.0929C77.5469 98.3753 76.2268 99.2885 75.8545 99.6517C74.7045 100.774 74.8393 99.8053 74.917 101.368V101.368Z" fill="#FAFAFA"/>
<path fill-rule="evenodd" clip-rule="evenodd" d="M55.6982 92.3772C57.7622 94.0581 62.886 111.843 65.0466 115.771C66.8925 113.97 66.0096 114.796 67.0632 112.599L72.8222 101.644C72.1226 99.313 71.6951 100.238 70.1133 98.3979C67.7323 97.7306 56.9813 90.2969 55.0327 87.752L55.6982 92.3772Z" fill="#FAFAFA"/>
<path fill-rule="evenodd" clip-rule="evenodd" d="M209.379 83.1549C210.125 84.7143 210.166 84.2467 211.877 85.2499L212.86 85.0877C217.524 82.6066 221.151 79.2115 225.719 76.2416C224.924 72.3972 224.79 69.5942 225.407 65.7183L224.776 66.7876C223.117 69.4764 219.066 73.9001 216.134 74.1217C209.005 74.661 206.101 73.7726 201.363 71.1712C203.145 74.998 207.216 79.0919 209.379 83.1543L209.379 83.1549Z" fill="#E4AC93"/>
<path fill-rule="evenodd" clip-rule="evenodd" d="M160.16 111.317C159.237 109.221 160.096 110.977 159.597 109.035C159.007 106.738 159.631 107.846 158.56 105.886C157.679 110.191 158.167 93.9384 158.167 92.8271C148.195 96.493 151.32 96.0795 139.715 94.2675C140.56 95.4886 139.887 94.7144 140.842 95.723L155.081 107.744C156.774 109.323 157.609 110.84 160.16 111.316V111.317Z" fill="#E4AC93"/>
<path fill-rule="evenodd" clip-rule="evenodd" d="M233.542 79.5955C231.635 77.9359 232.376 78.2614 229.874 78.0039L230.105 103.325L234.096 103.336L233.543 79.5961L233.542 79.5955Z" fill="#262262" fill-opacity="0.8"/>
<path fill-rule="evenodd" clip-rule="evenodd" d="M188.437 80.1299L188.452 103.657L192.087 103.1L191.853 79.6478C189.573 79.3107 191.049 79.349 188.437 80.1299Z" fill="#262262" fill-opacity="0.8"/>
<path fill-rule="evenodd" clip-rule="evenodd" d="M25.301 143.998H28.43C26.2907 137.146 25.7655 127.568 22.968 121.628C22.6777 125.419 20.9951 131.095 21.2987 133.763C21.4851 135.401 24.3719 141.397 25.301 143.998Z" fill="#262262" fill-opacity="0.8"/>
<path fill-rule="evenodd" clip-rule="evenodd" d="M241.352 144H249.455C248.604 140.683 244.703 130.924 242.797 128.65L241.352 144Z" fill="#262262" fill-opacity="0.6"/>
<path fill-rule="evenodd" clip-rule="evenodd" d="M124.35 10.5098C124.263 12.4219 129.687 29.2471 131.091 32.0385L128.479 8.25391L124.35 10.5098Z" fill="#F37821"/>
<path fill-rule="evenodd" clip-rule="evenodd" d="M211.878 85.2485C210.167 84.246 210.127 84.713 209.38 83.1536C204.904 81.4157 204.468 79.996 200.897 77.7535C198.583 77.4432 200.168 77.3339 199.592 78.5289C201.606 80.3172 203.857 86.4466 205.954 89.6838C208.557 89.0753 210.553 87.3957 211.878 85.2485H211.878Z" fill="#FAFAFA"/>
<path fill-rule="evenodd" clip-rule="evenodd" d="M212.861 85.0878L215.191 87.6692C215.953 88.3286 217.207 89.1168 218.302 89.7975C218.806 89.2668 218.855 89.3142 219.412 88.4525C219.948 87.6212 219.963 87.4585 220.385 86.5683L225.72 76.2417C221.151 79.2117 217.524 82.6073 212.861 85.0878H212.861Z" fill="#FAFAFA"/>
<path fill-rule="evenodd" clip-rule="evenodd" d="M50.4231 52.0188C50.7857 54.9226 50.6041 55.8608 52.6948 57.2392L52.4689 49.1934L49.7661 49.2067L50.4231 52.0194V52.0188Z" fill="#030029"/>
<path fill-rule="evenodd" clip-rule="evenodd" d="M93.7902 51.7876L94.194 49.1917C91.8301 49.2937 91.456 48.4369 91.6303 50.4007L91.6801 57.4591C93.2431 56.2483 93.3366 54.0599 93.7902 51.7876Z" fill="#030029"/>
<path fill-rule="evenodd" clip-rule="evenodd" d="M195.151 49.6895C195.736 52.7542 195.477 52.5538 197.158 54.1399L197.047 47.3164L194.654 47.4919L195.152 49.6895H195.151Z" fill="#030029"/>
<path fill-rule="evenodd" clip-rule="evenodd" d="M227.831 49.0344L228.058 47.4095L225.59 47.2559L225.987 53.7575L227.831 49.0344Z" fill="#030029"/>
</svg>
