<svg width="260" height="144" viewBox="0 0 260 144" fill="none" xmlns="http://www.w3.org/2000/svg">
<path fill-rule="evenodd" clip-rule="evenodd" d="M181.591 79.6485L181.825 103.101L178.189 103.658L178.174 80.1305L172.322 81.6708C171.308 97.5089 171.448 106.626 176.008 120.69L177.933 121.106L178.007 104.604L223.702 104.225L223.658 144H231.09L232.535 128.65C234.441 130.924 238.342 140.683 239.193 144H259.192C258.536 141.34 258.44 136.046 259.344 133.831C254.413 128.613 251.543 108.579 249.014 98.7204C246.789 90.0466 248.161 88.3781 239.887 85.2413C236.005 83.7698 226.639 79.549 223.287 79.5961L223.84 103.336L219.849 103.325L219.617 78.0046L215.461 76.2409L210.126 86.5676C209.704 87.4579 209.689 87.6204 209.152 88.4519C208.596 89.3136 208.547 89.266 208.043 89.7968C206.948 89.1162 205.693 88.3278 204.932 87.6683L202.602 85.0873L201.618 85.2491C200.294 87.3964 198.298 89.0765 195.695 89.6847C193.597 86.4476 191.346 80.3181 189.333 78.5299C189.908 77.3349 188.324 77.4442 190.637 77.7543C188.826 76.8018 189.616 77.003 188.755 76.4485L188.811 72.3193L188.314 76.5317C185.167 77.4773 183.286 77.4831 181.591 79.6485V79.6485Z" fill="#CCDCDB"/>
<path fill-rule="evenodd" clip-rule="evenodd" d="M110.146 120.038C118.285 127.173 158.022 129.412 164.491 119.786C156.295 119.126 151.449 118.405 149.902 111.318C147.351 110.842 146.517 109.325 144.823 107.746L130.584 95.7251C129.629 94.7167 130.302 95.4906 129.457 94.2695C141.062 96.081 137.938 96.4948 147.909 92.8289C147.909 93.9396 147.421 110.192 148.302 105.888L148.381 91.6308C150.739 90.5628 152.02 89.5058 153.618 87.4075C156.915 83.0787 158.396 81.0469 160.658 75.5873C165.334 64.3021 162.887 84.7478 167.173 56.4869C162.564 57.8188 164.288 59.6768 163.302 58.2592C163.189 58.0973 162.926 58.4846 162.724 58.5683C162.135 56.2806 161.011 55.1463 159.699 53.1572L112.27 52.9525C110.341 58.9903 110.429 57.0733 109.066 57.3434L107.99 57.4816C107.905 57.302 107.591 57.4758 107.421 57.5656C108.225 61.7409 108.391 64.9999 109 68.6791C109.906 74.1542 111.45 69.797 113.937 73.2446C114.508 74.0365 116.529 83.6153 124.466 90.3272C128.001 93.3162 127.138 95.0739 126.868 100.433C126.71 103.56 126.332 108.595 125.511 111.541C123.3 119.479 115.368 119.219 110.146 120.038V120.038Z" fill="#F8D09F"/>
<path fill-rule="evenodd" clip-rule="evenodd" d="M95.7805 121.512C93.633 122.445 91.7769 123.839 89.5519 124.014C86.6819 127.484 84.9444 128.303 81.7763 132.441C79.4333 135.501 77.8751 139.618 77.1747 144H197.554C196.787 140.444 196.157 138.663 194.609 135.612L190.289 129.048C187.594 125.628 182.261 123.406 177.933 121.106L176.008 120.691L164.49 119.786C158.022 129.412 118.285 127.173 110.146 120.038C104.067 119.129 100.892 120.368 95.7805 121.512V121.512Z" fill="#F37821"/>
<path fill-rule="evenodd" clip-rule="evenodd" d="M98.5393 39.3936C96.2698 39.9872 97.3373 38.6346 97.2023 40.8598L97.1491 52.4025L98.8862 52.8546L112.27 52.9526L159.699 53.1573L174.272 52.9733L177.125 52.8724L177.474 40.1341C176.518 39.533 175.763 39.5043 174.938 37.4907C173.558 34.1219 172.924 23.3961 163.247 13.7837C155.98 6.56531 146.759 -0.426529 135.655 0.0204669C137.511 1.34825 136.146 0.503726 137.028 1.63715L136.869 40.12L156.542 40.1235C159.478 40.4233 159.766 41.057 159.461 44.0381C155.546 45.3036 114.076 44.5602 106.286 44.391L102.926 39.393L98.5393 39.3938L98.5393 39.3936Z" fill="#F37821"/>
<path fill-rule="evenodd" clip-rule="evenodd" d="M177.933 121.106C182.261 123.406 187.594 125.628 190.289 129.048L194.609 135.612C196.157 138.662 196.787 140.444 197.554 144H223.658L223.702 104.225L178.007 104.604L177.932 121.106H177.933Z" fill="#358B9A"/>
<path fill-rule="evenodd" clip-rule="evenodd" d="M118.222 8.25332L120.834 32.0381C119.431 29.2468 114.006 12.4218 114.093 10.5094C112.828 12.6622 110.626 13.6422 108.832 15.7588C107.75 17.0355 105.169 21.1836 104.315 22.8238C100.794 29.5881 100.626 32.7722 98.5393 39.3935L102.926 39.3927L106.286 44.3908C114.077 44.56 155.546 45.3035 159.461 44.0378C159.767 41.0567 159.478 40.423 156.542 40.1232L136.869 40.1197L137.028 1.63691C136.146 0.503492 137.511 1.34801 135.655 0.0202332C131.882 0.27495 128.544 1.04351 125.377 2.56981C121.738 4.32321 120.317 5.67116 118.222 8.25324V8.25332Z" fill="#F37821" fill-opacity="0.8"/>
<path fill-rule="evenodd" clip-rule="evenodd" d="M101.441 96.4219C101.168 100.629 100.674 105.758 99.6921 109.76C98.5062 114.592 96.8051 117.677 95.7806 121.512C100.892 120.368 104.067 119.129 110.146 120.038C115.368 119.219 123.3 119.479 125.511 111.541C126.332 108.595 126.71 103.56 126.868 100.433C127.138 95.0739 128.001 93.3162 124.466 90.3273C116.529 83.6155 114.508 74.0365 113.937 73.2446C111.45 69.797 109.906 74.1543 109 68.6792C108.391 64.9999 108.225 61.7408 107.421 57.5656C107.591 57.4759 107.905 57.3021 107.99 57.4816L109.066 57.3435C110.429 57.0733 110.341 58.9904 112.27 52.9526L98.8863 52.8546C100.683 66.0224 101.759 83.1079 101.441 96.4219H101.441Z" fill="#53322C"/>
<path fill-rule="evenodd" clip-rule="evenodd" d="M148.302 105.888C149.373 107.847 148.749 106.74 149.339 109.037C149.838 110.979 148.979 109.222 149.902 111.318C151.449 118.404 156.295 119.126 164.49 119.786L176.008 120.691C171.448 106.626 171.308 97.509 172.322 81.6708L174.272 52.9733L159.699 53.1573C161.011 55.1465 162.135 56.2807 162.724 58.5683C162.926 58.4848 163.189 58.0975 163.302 58.2593C164.288 59.6769 162.564 57.8188 167.173 56.487C162.887 84.7479 165.334 64.3022 160.658 75.5873C158.396 81.0469 156.915 83.0787 153.618 87.4076C152.02 89.5058 150.739 90.5629 148.381 91.6308L148.302 105.888V105.888Z" fill="#53322C"/>
<path fill-rule="evenodd" clip-rule="evenodd" d="M184.889 49.6905L181.659 48.5307L182.794 57.6521C183.649 57.9922 184.275 57.9867 184.874 58.1952L186.715 59.0182C185.917 67.1398 189.118 65.4567 188.811 72.3194L188.755 76.4486C189.616 77.0031 188.826 76.8019 190.637 77.7544C194.208 79.9971 194.645 81.4164 199.12 83.1545C196.957 79.0921 192.886 74.9981 191.104 71.1712C195.842 73.7722 198.747 74.6606 205.875 74.1216C208.807 73.8999 212.859 69.4763 214.518 66.7873L215.148 65.7177C216.18 63.5608 215.439 63.1737 215.708 61.1924C216.493 55.4079 215.825 60.052 217.578 57.5973C219.099 55.4653 218.136 52.9048 219.495 49.8202C218.502 48.5509 221.079 48.2135 217.571 49.0352L215.727 53.7581L215.33 47.2565L186.785 47.3172L186.896 54.1406C185.215 52.5546 185.474 52.7554 184.889 49.6905L184.889 49.6905Z" fill="#F8D09F"/>
<path fill-rule="evenodd" clip-rule="evenodd" d="M180.786 39.9444C179.384 41.578 180.18 44.4374 179.659 47.2816L184.392 47.4929L186.785 47.3172L215.33 47.2565L217.797 47.4101L222.044 47.4465C221.276 39.202 223.182 45.5743 220.17 37.4503C218.906 34.0428 218.285 31.7079 216.102 29.0992C215.219 28.0435 214.31 27.0642 213.388 26.0749C209.99 22.4261 205.704 20.06 200.369 19.6577L200.898 40.5493C207.438 41.3681 211.125 39.2616 212.496 42.3125C209.306 43.9749 190.701 43.0123 185.526 43.036C182.32 41.4348 185.588 41.3952 180.786 39.9444V39.9444Z" fill="#F37821"/>
<path fill-rule="evenodd" clip-rule="evenodd" d="M180.786 39.9444C185.588 41.3953 182.32 41.4349 185.526 43.0361C190.701 43.0124 209.306 43.975 212.496 42.3126C211.125 39.2617 207.438 41.3682 200.898 40.5493L200.369 19.6577C194.488 20.3959 191.323 22.9505 187.655 26.2781C183.635 29.9255 181.958 34.292 180.786 39.9444V39.9444Z" fill="#F37821" fill-opacity="0.8"/>
<path fill-rule="evenodd" clip-rule="evenodd" d="M199.12 83.1544C199.867 84.7138 199.907 84.2464 201.618 85.2491L202.602 85.0873C207.265 82.6063 210.892 79.2112 215.461 76.2409C214.666 72.3966 214.531 69.5935 215.148 65.7176L214.518 66.7872C212.859 69.4762 208.807 73.8998 205.875 74.1215C198.747 74.6606 195.842 73.7721 191.104 71.1711C192.886 74.998 196.957 79.092 199.12 83.1544H199.12Z" fill="#E4AC93"/>
<path fill-rule="evenodd" clip-rule="evenodd" d="M149.902 111.318C148.979 109.222 149.838 110.979 149.339 109.037C148.749 106.74 149.373 107.847 148.302 105.888C147.421 110.192 147.909 93.9396 147.909 92.8289C137.938 96.4947 141.062 96.0809 129.457 94.2695C130.302 95.4907 129.629 94.7167 130.584 95.7251L144.823 107.746C146.517 109.325 147.351 110.842 149.902 111.318Z" fill="#E4AC93"/>
<path fill-rule="evenodd" clip-rule="evenodd" d="M223.287 79.5962C221.379 77.9365 222.12 78.2618 219.617 78.0046L219.849 103.325L223.84 103.336L223.286 79.5962H223.287Z" fill="#358B9A"/>
<path fill-rule="evenodd" clip-rule="evenodd" d="M178.174 80.1305L178.19 103.658L181.825 103.101L181.591 79.6486C179.31 79.3117 180.787 79.3496 178.174 80.1305V80.1305Z" fill="#358B9A"/>
<path fill-rule="evenodd" clip-rule="evenodd" d="M231.09 144H239.193C238.342 140.683 234.441 130.924 232.535 128.65L231.09 144Z" fill="#57B7DF"/>
<path fill-rule="evenodd" clip-rule="evenodd" d="M114.093 10.5095C114.006 12.4218 119.431 29.2468 120.834 32.0382L118.222 8.25339L114.093 10.5096V10.5095Z" fill="#F37821"/>
<path fill-rule="evenodd" clip-rule="evenodd" d="M201.618 85.2492C199.907 84.2465 199.867 84.7139 199.12 83.1545C194.645 81.4163 194.208 79.9971 190.637 77.7543C188.324 77.4442 189.908 77.3349 189.333 78.5299C191.346 80.3181 193.597 86.4477 195.695 89.6847C198.298 89.0765 200.294 87.3964 201.618 85.2492V85.2492Z" fill="#FAFAFA"/>
<path fill-rule="evenodd" clip-rule="evenodd" d="M202.602 85.0873L204.932 87.6684C205.693 88.3278 206.948 89.1162 208.043 89.7969C208.547 89.2661 208.596 89.3136 209.152 88.452C209.689 87.6203 209.704 87.4579 210.126 86.5677L215.461 76.241C210.892 79.2112 207.265 82.6064 202.602 85.0873H202.602Z" fill="#FAFAFA"/>
<path fill-rule="evenodd" clip-rule="evenodd" d="M184.889 49.6904C185.474 52.7554 185.215 52.5546 186.896 54.1406L186.785 47.3171L184.392 47.4928L184.889 49.6904V49.6904Z" fill="#090709"/>
<path fill-rule="evenodd" clip-rule="evenodd" d="M217.571 49.0351L217.797 47.41L215.33 47.2564L215.727 53.7581L217.571 49.0351Z" fill="#090709"/>
<path fill-rule="evenodd" clip-rule="evenodd" d="M27.9479 57.2352C29.5588 56.6797 57.0997 57.0596 61.1887 57.0869C60.983 58.458 63.4716 68.2823 63.9135 70.3939C64.4385 72.9033 66.6947 82.0321 66.6345 83.789L22.2514 83.7954L27.948 57.2351L27.9479 57.2352ZM8.78575 84.4603C8.93977 84.5024 12.6264 83.4203 15.8411 84.3353C16.859 84.625 18.1815 85.0339 19.0015 85.456C20.13 86.0368 20.6847 86.7329 21.5595 87.1939L21.1565 88.8709L67.7131 88.9199C67.0767 86.5894 69.1628 85.6104 71.8165 84.7106C74.0727 83.9458 77.9085 83.5716 79.947 84.5473L80.0907 84.0925C79.0361 78.0782 77.2517 72.709 76.0499 66.693C75.4637 63.758 74.6163 60.8181 73.9385 57.9219C73.5786 56.3843 73.2545 55.1815 72.9451 53.6127C72.7112 52.4261 72.4724 50.8194 71.9823 49.7635C71.2156 48.1111 67.568 48.4318 65.6913 48.8795C62.7691 49.5766 61.7769 50.8485 60.46 51.5861C59.2777 52.2483 29.4317 51.9565 28.9802 51.8211C28.0877 51.5528 27.1296 49.9812 23.805 49.0403C22.2268 48.5937 17.6237 48.0808 17.0004 49.6054L8.78575 84.4602V84.4603Z" fill="#EDEDED"/>
<path fill-rule="evenodd" clip-rule="evenodd" d="M22.2511 83.7954L66.6343 83.789C66.6944 82.0321 64.4382 72.9033 63.9133 70.3939C63.4714 68.2823 60.9828 58.458 61.1885 57.0869C57.0995 57.0596 29.5586 56.6797 27.9477 57.2352L22.2511 83.7954L22.2511 83.7954Z" fill="#9D9E9B"/>
<path fill-rule="evenodd" clip-rule="evenodd" d="M8.78564 84.4602C7.89557 85.223 8.47409 86.6577 9.67259 87.3637C10.5548 87.8837 11.769 88.4868 12.8866 88.9117C15.0033 89.7165 19.4175 90.0167 21.1564 88.8707L21.5594 87.1938C20.6845 86.7328 20.1298 86.0367 19.0014 85.4558C18.1814 85.0337 16.8589 84.6248 15.841 84.3351C12.6264 83.4202 8.93966 84.5024 8.78564 84.4601V84.4602Z" fill="#9D9E9B"/>
<path fill-rule="evenodd" clip-rule="evenodd" d="M67.7132 88.9198C69.2496 89.1941 67.7894 89.4994 71.7022 89.4878C74.5017 89.4796 79.6463 88.2342 80.375 86.1057C80.8761 84.6414 80.1709 84.1962 80.0909 84.0924L79.9472 84.5473C77.9086 83.5715 74.0729 83.9456 71.8167 84.7106C69.163 85.6103 67.0769 86.5893 67.7133 88.9198H67.7132Z" fill="#9D9E9B"/>
<path fill-rule="evenodd" clip-rule="evenodd" d="M43.7737 27.3021C41.9898 27.4194 40.433 27.4452 38.6517 27.6556C36.747 27.8804 35.6037 28.3181 34.0241 28.6792C24.438 30.6436 15.1016 37.9193 10.7771 43.4073C5.23697 50.4383 0.642529 59.3157 0.655898 71.6081C0.669106 83.4616 5.07287 93.1349 10.6894 99.9091C16.0697 106.399 25.6276 113.289 34.14 114.733L38.9871 115.692L42.2785 116.039L46.4342 116.494C46.5159 116.607 68.6373 132.021 70.1123 132.583C69.5972 129.61 64.0472 115.104 63.7299 111.985C69.709 109.77 75.8817 104.182 80.0159 99.0702C84.694 93.2857 87.4651 86.643 88.9007 78.6876C89.9171 73.055 89.4393 66.211 88.1558 61.0336C84.5811 46.6144 72.9468 34.0633 60.3942 29.9804C56.5856 28.7418 48.2154 26.4914 43.7736 27.302L43.7737 27.3021ZM8.78572 84.4603L17.0004 49.6055C17.6237 48.0809 22.2267 48.5938 23.8049 49.0404C27.1297 49.9813 28.0877 51.5529 28.9802 51.8211C29.4318 51.9566 59.2778 52.2483 60.46 51.5862C61.7769 50.8484 62.7691 49.5767 65.6913 48.8795C67.568 48.4319 71.2156 48.1112 71.9823 49.7636C72.4723 50.8194 72.7111 52.4262 72.945 53.6128C73.2545 55.1814 73.5786 56.3843 73.9385 57.9219C74.6162 60.8182 75.4637 63.7581 76.0498 66.6931C77.2516 72.7091 79.0361 78.0783 80.0907 84.0926C80.1708 84.1963 80.8759 84.6415 80.3748 86.1058C79.6461 88.2343 74.5015 89.4798 71.702 89.488C67.7892 89.4995 69.2494 89.1942 67.713 88.92L21.1564 88.871C19.4174 90.017 15.0033 89.7168 12.8866 88.912C11.769 88.487 10.5548 87.884 9.67259 87.3639C8.47409 86.6579 7.89557 85.2232 8.78564 84.4604L8.78572 84.4603Z" fill="#F37821"/>
</svg>
