<svg width="232" height="144" fill="none" xmlns="http://www.w3.org/2000/svg"><path fill-rule="evenodd" clip-rule="evenodd" d="M120.606 120.038c8.138 7.135 47.876 9.374 54.344-.252-8.195-.66-13.041-1.381-14.589-8.468-2.551-.476-3.386-1.993-5.079-3.572l-14.238-12.021c-.956-1.009-.283-.234-1.128-1.456 11.605 1.812 8.481 2.226 18.452-1.44 0 1.11-.488 17.363.392 13.059l.079-14.257c2.358-1.068 3.639-2.125 5.238-4.223 3.297-4.33 4.778-6.36 7.039-11.82 4.675-11.286 2.229 9.16 6.515-19.101-4.61 1.332-2.885 3.19-3.872 1.772-.112-.162-.376.225-.578.309-.588-2.288-1.712-3.422-3.025-5.412l-47.428-.204c-1.93 6.038-1.841 4.12-3.205 4.39l-1.076.138c-.084-.179-.399-.005-.568.085.803 4.175.97 7.434 1.579 11.113.905 5.475 2.449 1.118 4.936 4.566.571.791 2.592 10.37 10.53 17.082 3.535 2.99 2.671 4.747 2.401 10.107-.157 3.126-.535 8.161-1.356 11.107-2.211 7.938-10.143 7.678-15.366 8.497l.003.001Z" fill="#F8D09F"/><path fill-rule="evenodd" clip-rule="evenodd" d="M106.24 121.512c-2.147.933-4.003 2.327-6.228 2.502-2.87 3.471-4.607 4.289-7.775 8.427-2.343 3.06-3.902 7.178-4.602 11.56h120.379c-.767-3.556-1.396-5.338-2.945-8.388l-4.319-6.565c-2.695-3.419-8.029-5.642-12.357-7.941l-1.924-.415-11.518-.904c-6.468 9.625-46.206 7.386-54.345.251-6.078-.909-9.253.33-14.365 1.474l-.001-.001ZM108.999 39.393c-2.269.594-1.202-.76-1.337 1.466l-.053 11.543 1.737.452 13.384.098 47.429.204 14.573-.184 2.853-.1.348-12.739c-.956-.601-1.71-.63-2.535-2.643-1.381-3.369-2.015-14.095-11.692-23.707C166.439 6.565 157.218-.427 146.115.02c1.855 1.328.491.483 1.372 1.617l-.158 38.482 19.673.004c2.935.3 3.224.933 2.918 3.914-3.915 1.266-45.384.522-53.175.353l-3.36-4.998h-4.387l.001.001Z" fill="#F37821"/><path fill-rule="evenodd" clip-rule="evenodd" d="M.6 142.536V144h24.904c-.93-2.601-3.816-8.598-4.003-10.234-.303-2.669 1.38-8.345 1.67-12.136 2.797 5.94 3.323 15.518 5.462 22.371h23.382c-.852-5.887-6.428-13.727-6.585-19.814 2.43-.893 6.112-2.66 7.354-4.156-1.327-1.665-8.655-6.888-10.336-7.989 1.73-3.003 5.257-16.89 6.71-19.439-6.605 1.608-31.263 8.932-37.046 12.17-3.734 2.091-5.356 13.657-6.558 18.151-1.05 3.921-3.502 17.226-4.953 19.613v-.001Z" fill="#13B1BD"/><path fill-rule="evenodd" clip-rule="evenodd" d="M50.626 52.02c-3.262-.867-1.989-1.3-4.872-1.925L47.69 62.65c2.486 1.348.685.1 2.922.785.18.055.447.154.592.2.146.047.48.402.584.229.106-.175.414.114.583.24-.043 6.837-.472 6.66 2.42 11.922 1.767 3.213.429 7.229.44 11.728 1.949 2.546 12.7 9.98 15.08 10.646-.81-2.156-1.688-3.05-2.827-4.584L58.34 80.778c1.923.823.818.21 2.632 1.453 2.022 1.386 3.538 3.01 7.134 3.087 16.345.354 11.104 1.417 23.197-9.544 1.29-4.668 1.315-6.053 1.315-11.672 4.86-2.784 2.371 1.802 5.013-13.463-2.927-.278-.84-.317-3.638 1.148-.454 2.272-.547 4.46-2.11 5.672l-.05-7.059c-1.49-1.828.076-1.133-4.001-1.244l-35.16.038.226 8.045c-2.09-1.378-1.909-2.316-2.272-5.22h.001Z" fill="#F8D09F"/><path fill-rule="evenodd" clip-rule="evenodd" d="m128.681 8.253 2.613 23.785c-1.404-2.791-6.828-19.617-6.741-21.529-1.264 2.153-3.467 3.133-5.261 5.25-1.082 1.277-3.663 5.424-4.517 7.065-3.521 6.764-3.689 9.948-5.776 16.57h4.386l3.361 4.997c7.791.17 49.26.913 53.175-.352.305-2.981.016-3.615-2.919-3.915l-19.673-.003.159-38.483c-.882-1.133.483-.289-1.373-1.617-3.773.255-7.11 1.023-10.278 2.55-3.639 1.753-5.06 3.101-7.155 5.683h-.001Z" fill="#F37821" fill-opacity=".8"/><path fill-rule="evenodd" clip-rule="evenodd" d="M111.901 96.422c-.273 4.207-.767 9.336-1.749 13.337-1.185 4.833-2.887 7.918-3.912 11.753 5.112-1.144 8.287-2.382 14.366-1.474 5.222-.819 13.154-.559 15.365-8.497.821-2.947 1.198-7.982 1.356-11.107.27-5.36 1.134-7.118-2.401-10.107-7.937-6.711-9.958-16.29-10.53-17.083-2.486-3.448-4.03.91-4.936-4.565-.609-3.68-.776-6.938-1.579-11.114.169-.09.484-.263.568-.084l1.076-.138c1.363-.27 1.275 1.647 3.205-4.39l-13.385-.098c1.797 13.167 2.873 30.253 2.555 43.567h.001ZM158.762 105.887c1.071 1.96.447.852 1.037 3.149.499 1.942-.36.185.563 2.282 1.547 7.086 6.393 7.808 14.589 8.468l11.518.903c-4.561-14.064-4.701-23.181-3.686-39.019l1.949-28.698-14.573.184c1.313 1.99 2.437 3.124 3.025 5.412.202-.084.466-.471.578-.31.987 1.418-.738-.44 3.872-1.771-4.286 28.26-1.84 7.815-6.515 19.1-2.262 5.46-3.743 7.492-7.04 11.82-1.597 2.099-2.879 3.156-5.237 4.224l-.079 14.257-.001-.001Z" fill="#53322C"/><path fill-rule="evenodd" clip-rule="evenodd" d="M45.379 39.476c-1.64 1.953-.857 6.57-1.066 9.477l5.656.254 2.703-.014 35.16-.037c4.076.11 2.51-.584 4 1.244-.174-1.964.2-1.107 2.564-1.209l5.805-.083c.232-3.505.751-6.117-.617-9.13-.004-.009-.598-1.003-.805-1.467-1.72-3.85-.71-6.159-6.223-14.068-2.76-3.959-4.569-4.315-8.385-7.603-3.79-3.267-6.41-4.375-12.533-4.55 1.526 5.047.806 21.172.425 27.92 3.771.11 13.63-1.45 15.792 1.375-.732 2.183 2.892 1.85-8.081 1.761l-29.422-.032c-1.411-3.768-1.033-3.039-4.973-3.84v.002Z" fill="#F37821"/><path fill-rule="evenodd" clip-rule="evenodd" d="M45.379 39.476c3.94.8 3.562.07 4.973 3.84l29.422.031c10.973.09 7.349.423 8.081-1.76-2.162-2.825-12.02-1.265-15.792-1.376.38-6.747 1.1-22.873-.425-27.92-8.215.793-13.072 5.066-17.194 9.08-4.317 4.205-7.002 10.383-9.065 18.105Z" fill="#F37821" fill-opacity=".8"/><path fill-rule="evenodd" clip-rule="evenodd" d="M49.159 92.603c-1.454 2.547-4.981 16.435-6.71 19.438 1.68 1.102 9.008 6.325 10.335 7.99-1.242 1.495-4.923 3.261-7.354 4.155.157 6.087 5.732 13.927 6.585 19.814h12.19l-8.308-51.621-.666-4.625-6.072 4.85v-.001ZM91.255 91.856 82.96 144h4.676c.7-4.381 2.258-8.499 4.602-11.559 3.168-4.138 4.905-4.957 7.775-8.427-2.056-2.242-3.243-1.383-5.156-3.984.651-.804.296-.402 1.135-1.178l2.903-2.202c.128-.094.303-.218.43-.313.128-.096.3-.223.426-.32 1.521-1.178 3.405-2.693 4.885-4.053l-6.334-19.762c-.68-.679-4.376-3.323-6.146-4.684l-.069.408-.83 3.93v.001Z" fill="#358B9A"/><path fill-rule="evenodd" clip-rule="evenodd" d="M67.262 112.601c2.474 7.593 5.222 4.33 3.609 14.471-.911 5.725-2.01 11.145-2.725 16.928h11.206c-.326-5.187-1.464-11.424-2.344-16.768-.964-5.856.032-9.165 3.265-13.758-.81-3.997-3.882-7.994-5.158-12.106l-2.094.277-5.759 10.956Z" fill="#F37821"/><path fill-rule="evenodd" clip-rule="evenodd" d="M70.312 98.4c1.582 1.84 2.01.914 2.709 3.245l2.094-.277c-.077-1.563-.212-.594.938-1.716.372-.363 1.692-1.277 2.07-1.56 1.761-1.317 2.537-1.805 4.674-3.362 3.353-2.445 6.302-4.496 9.29-6.803l.068-.409-.852-11.744c-12.093 10.962-6.852 9.9-23.197 9.545-3.596-.078-5.112-1.701-7.135-3.087-1.813-1.243-.708-.63-2.632-1.453l9.146 13.036c1.138 1.535 2.016 2.428 2.828 4.585h-.001Z" fill="#E4AC93"/><path fill-rule="evenodd" clip-rule="evenodd" d="M64.204 143.999h3.942c.715-5.783 1.815-11.202 2.725-16.927 1.613-10.141-1.135-6.878-3.609-14.472-1.053 2.197-.17 1.371-2.017 3.172-2.161-3.928-7.285-21.713-9.349-23.394L64.204 144ZM80.272 113.474c-3.233 4.593-4.229 7.902-3.265 13.758.88 5.344 2.02 11.58 2.344 16.768h3.608l8.296-52.143-4.53 11.915c-1.209 3.523-3.198 8.772-3.912 12.343l-2.54-2.64v-.001Z" fill="#CCDCDB"/><path fill-rule="evenodd" clip-rule="evenodd" d="M100.012 124.013c2.225-.175 4.081-1.569 6.228-2.502 1.025-3.835 2.726-6.92 3.912-11.752.983-4.002 1.476-9.131 1.749-13.338l-13.6-4.22 6.334 19.763c-1.48 1.36-3.364 2.874-4.885 4.052-.126.097-.298.225-.426.32-.127.096-.302.22-.43.313l-2.903 2.203c-.839.775-.483.373-1.135 1.178 1.914 2.601 3.1 1.742 5.156 3.983Z" fill="#13B1BD"/><path fill-rule="evenodd" clip-rule="evenodd" d="M75.115 101.367c1.275 4.112 4.347 8.11 5.157 12.107l2.54 2.64c.715-3.571 2.704-8.82 3.913-12.343l4.53-11.915.83-3.93c-2.987 2.307-5.936 4.359-9.29 6.802-2.135 1.558-2.912 2.046-4.672 3.363-.378.283-1.698 1.196-2.07 1.56-1.15 1.122-1.016.153-.938 1.715v.001ZM55.896 92.378c2.064 1.682 7.188 19.466 9.349 23.394 1.846-1.801.963-.975 2.017-3.172l5.759-10.955c-.7-2.33-1.127-1.406-2.71-3.246-2.38-.668-13.131-8.102-15.08-10.646l.666 4.625Z" fill="#FAFAFA"/><path fill-rule="evenodd" clip-rule="evenodd" d="M160.362 111.318c-.923-2.096-.064-.339-.563-2.281-.59-2.297.034-1.19-1.037-3.149-.881 4.304-.393-11.948-.393-13.06-9.971 3.667-6.847 3.253-18.452 1.441.845 1.221.172.447 1.128 1.456l14.238 12.021c1.695 1.579 2.528 3.096 5.079 3.572Z" fill="#E4AC93"/><path fill-rule="evenodd" clip-rule="evenodd" d="M25.504 143.999h3.129c-2.14-6.852-2.665-16.429-5.462-22.37-.29 3.79-1.974 9.466-1.67 12.135.186 1.638 3.073 7.633 4.003 10.235Z" fill="#358B9A"/><path fill-rule="evenodd" clip-rule="evenodd" d="M124.553 10.51c-.087 1.911 5.337 18.736 6.741 21.528l-2.613-23.785-4.129 2.256h.001Z" fill="#F37821"/><path fill-rule="evenodd" clip-rule="evenodd" d="M50.626 52.02c.363 2.903.181 3.841 2.272 5.22l-.226-8.047-2.703.014.657 2.813ZM93.992 51.788l.404-2.596c-2.364.102-2.738-.755-2.564 1.21l.05 7.058c1.563-1.211 1.657-3.4 2.111-5.672Z" fill="#090709"/><path fill-rule="evenodd" clip-rule="evenodd" d="M208.124 133.571c2.236 2.751 3.584 5.224 7.688 6.622 10.789 3.675 21.003-9.222 12.331-19.411-.594-.697-.914-1.231-1.58-2.032-3.824-4.598-11.97-17.075-16.94-19.078-3.241-1.306-5.606-.606-6.092-.789-.355-.265-.541-.615-.851-1.069-3.076-4.496-8.361-11.076-11.916-15.919-.039-.053-.14-.184-.202-.277-.258-.394-.074-.09-.252-.434.433-.651.693-.777 1.396-1.49 3.037-3.086 6.121-8.585 7.513-12.62 4.386-12.71 1.708-25.694-6.481-35.747-1.821-2.234-5.016-5.243-7.496-6.822-.167-.106-.209-.118-.388-.235l-.459-.321c-1.16-.777-3.654-2.202-4.904-2.589l-2.595 5.618c-.264.55-.706 1.3-.862 1.994 1.564 1.106 4.934 2.258 7.715 5.358 1.419 1.582 1.372 1.263 3.101 3.511.935 1.216 1.772 2.619 2.498 4.103 3.288 6.735 3.796 14.647.986 21.914-1.379 3.564-2.969 5.783-4.939 8.262-.859 1.08-2.387 2.334-3.376 3.227-.532.479-1.207.942-1.889 1.413-9.536 6.585-22.382 6.375-32.267-1.037-1.318-.988-2.223-2.045-3.43-3.17-.903-.84-2.021-2.503-2.86-3.749-3.669-5.452-5.465-14.07-3.473-21.486 1.963-7.31 6.122-12.43 10.758-15.665 5.909-4.125 12.099-5.759 20.878-4.603l3.67-7.862c-7.487-1.355-11.976-1.706-19.664.527-7.85 2.28-14.803 7.554-19.467 14.19-1.44 2.047-3.038 4.937-3.954 7.363-9.664 25.608 9.319 50.605 34.256 50.422 10.891-.08 16.828-4.406 17.928-4.555 1.809 2.162 11.112 14.746 12.68 17.011-.369 1.127-1.237 1.912-1.654 4.421-1.272 7.671 9.797 19.107 14.591 25.004h.002Zm-52.953-73.909c-.8.586-.519 1.216-.111 2.263a9.055 9.055 0 0 0 1.107 2.036c.8 1.105 1.903 2.208 3.374 2.926 3.37 1.646 7.279.964 9.877-.988 1.063-.8.268-1.805-.182-1.976-1.394-.529-2.93 2.678-7.387 1.434-1.503-.42-2.424-1.06-3.4-2.101-.612-.655-1.119-1.638-1.42-2.519-.299-.873-.687-1.932-1.859-1.075h.001Zm-4.588 1.504c-2.134.874.734 8.166 5.799 10.915 4.81 2.612 10.071 2.163 14.193-.78 1.472-1.05.224-2.597-1.022-1.821-3.239 2.013-6.523 3.157-10.674 1.518-8.125-3.207-5.95-10.794-8.296-9.833Zm38.02 24.195c1.784-.514 3.219.593 3.631 1.983.489 1.653-.69 3.21-1.897 3.563-3.885 1.137-5.242-4.537-1.734-5.545v-.001Z" fill="#262262"/></svg>