<svg width="232" height="144" viewBox="0 0 232 144" fill="none" xmlns="http://www.w3.org/2000/svg">
<path fill-rule="evenodd" clip-rule="evenodd" d="M120.606 120.038C128.744 127.173 168.482 129.412 174.95 119.786C166.755 119.126 161.909 118.405 160.361 111.318C157.81 110.842 156.975 109.325 155.282 107.746L141.044 95.7249C140.088 94.7163 140.761 95.4905 139.916 94.2694C151.521 96.0812 148.397 96.4948 158.368 92.8288C158.368 93.9394 157.88 110.192 158.76 105.888L158.839 91.6311C161.197 90.563 162.478 89.5063 164.077 87.4077C167.374 83.0787 168.855 81.0474 171.116 75.5873C175.791 64.3024 173.345 84.7481 177.631 56.4866C173.021 57.8189 174.746 59.6767 173.759 58.2587C173.647 58.0972 173.383 58.4839 173.181 58.5675C172.593 56.2798 171.469 55.1459 170.156 53.1563L122.728 52.9516C120.798 58.9897 120.887 57.0724 119.523 57.3422L118.447 57.4803C118.363 57.3011 118.048 57.4747 117.879 57.5646C118.682 61.7399 118.849 64.9986 119.458 68.6781C120.363 74.1531 121.907 69.7958 124.394 73.2436C124.965 74.0355 126.986 83.6142 134.924 90.3265C138.459 93.3154 137.595 95.0733 137.325 100.433C137.168 103.559 136.79 108.594 135.969 111.54C133.758 119.478 125.826 119.218 120.603 120.037L120.606 120.038Z" fill="#F8D09F"/>
<path fill-rule="evenodd" clip-rule="evenodd" d="M106.24 121.512C104.093 122.445 102.237 123.839 100.012 124.014C97.142 127.485 95.4046 128.303 92.2365 132.441C89.8935 135.501 88.3353 139.619 87.6348 144.001H208.014C207.247 140.445 206.618 138.663 205.069 135.613L200.75 129.048C198.055 125.629 192.721 123.406 188.393 121.107L186.469 120.692L174.951 119.788C168.483 129.413 128.745 127.174 120.606 120.039C114.528 119.13 111.353 120.369 106.241 121.513L106.24 121.512Z" fill="#F37821"/>
<path fill-rule="evenodd" clip-rule="evenodd" d="M108.999 39.3932C106.73 39.9867 107.797 38.6339 107.662 40.8593L107.609 52.402L109.346 52.8539L122.73 52.9516L170.159 53.1563L184.732 52.9722L187.585 52.8716L187.933 40.1333C186.977 39.532 186.223 39.5036 185.398 37.49C184.017 34.1215 183.383 23.3954 173.706 13.7827C166.439 6.56472 157.218 -0.427345 146.115 0.0195745C147.97 1.34759 146.606 0.502616 147.487 1.63656L147.329 40.1191L167.002 40.1227C169.937 40.4223 170.226 41.0562 169.92 44.0373C166.005 45.303 124.536 44.5593 116.745 44.39L113.385 39.3917L108.998 39.3924L108.999 39.3932Z" fill="#F37821"/>
<path fill-rule="evenodd" clip-rule="evenodd" d="M0.600861 142.536V144H25.5037C24.5745 141.399 21.6876 135.402 21.5013 133.766C21.1981 131.097 22.8803 125.421 23.1707 121.63C25.9684 127.57 26.4939 137.148 28.6329 144.001H52.0151C51.163 138.114 45.5868 130.274 45.4303 124.187C47.8604 123.294 51.542 121.527 52.7836 120.031C51.457 118.366 44.1292 113.143 42.4484 112.042C44.178 109.039 47.7045 95.1519 49.1586 92.6035C42.5533 94.2106 17.8955 101.535 12.1124 104.773C8.37769 106.864 6.75646 118.43 5.55381 122.924C4.50415 126.845 2.05211 140.15 0.600861 142.537L0.600861 142.536Z" fill="#13B1BD"/>
<path fill-rule="evenodd" clip-rule="evenodd" d="M50.6262 52.0195C47.3638 51.1526 48.6373 50.7191 45.7539 50.0952L47.6897 62.6493C50.1757 63.9971 48.3746 62.7499 50.612 63.4341C50.7912 63.4886 51.0589 63.5878 51.2041 63.6345C51.35 63.6813 51.6836 64.0361 51.7884 63.8626C51.894 63.6883 52.2021 63.9773 52.3706 64.1027C52.3281 70.9396 51.8989 70.7633 54.7915 76.025C56.5579 79.2385 55.22 83.2537 55.2313 87.7533C57.1798 90.2988 67.9307 97.7322 70.3119 98.3994C69.5002 96.2427 68.6234 95.3488 67.4845 93.8147L58.3385 80.7782C60.2622 81.6013 59.1573 80.9886 60.9705 82.2309C62.9933 83.617 64.509 85.2404 68.1049 85.3183C84.4504 85.6724 79.2092 86.7348 91.3022 75.7736C92.5927 71.1061 92.6168 69.7207 92.6168 64.102C97.4777 61.3177 94.9881 65.9038 97.63 50.6391C94.7034 50.3615 96.7907 50.3225 93.9923 51.7872C93.5383 54.0594 93.4448 56.2479 91.8816 57.4591L91.8313 50.4004C90.3418 48.5717 91.9078 49.2665 87.831 49.156L52.6709 49.1935L52.8969 57.2395C50.8068 55.8612 50.9881 54.9235 50.6254 52.0195H50.6262Z" fill="#F8D09F"/>
<path fill-rule="evenodd" clip-rule="evenodd" d="M128.681 8.25325L131.294 32.0378C129.89 29.2465 124.466 12.4214 124.553 10.5091C123.289 12.6622 121.086 13.6418 119.292 15.7588C118.21 17.0358 115.629 21.1835 114.775 22.8238C111.254 29.5885 111.086 32.7722 108.999 39.3939L113.385 39.3932L116.746 44.3914C124.537 44.5607 166.006 45.3044 169.921 44.0387C170.226 41.0576 169.937 40.4237 167.002 40.1241L147.329 40.1206L147.488 1.63798C146.606 0.504746 147.971 1.34901 146.115 0.0209961C142.342 0.275974 139.005 1.04445 135.837 2.57078C132.198 4.32446 130.777 5.6723 128.682 8.25396L128.681 8.25325Z" fill="#F37821" fill-opacity="0.8"/>
<path fill-rule="evenodd" clip-rule="evenodd" d="M111.901 96.4219C111.628 100.629 111.134 105.758 110.152 109.759C108.967 114.592 107.265 117.677 106.24 121.512C111.352 120.368 114.527 119.13 120.606 120.038C125.828 119.219 133.76 119.479 135.971 111.541C136.792 108.594 137.169 103.559 137.327 100.434C137.597 95.074 138.461 93.3161 134.926 90.3272C126.989 83.6156 124.968 74.0362 124.396 73.2443C121.91 69.7965 120.366 74.1538 119.46 68.6788C118.851 64.9993 118.684 61.7406 117.881 57.5653C118.05 57.4754 118.365 57.3018 118.449 57.481L119.525 57.3429C120.888 57.0731 120.8 58.9896 122.73 52.9523L109.345 52.8546C111.142 66.0221 112.218 83.1077 111.9 96.4219H111.901Z" fill="#53322C"/>
<path fill-rule="evenodd" clip-rule="evenodd" d="M158.762 105.887C159.833 107.847 159.209 106.739 159.799 109.036C160.298 110.978 159.439 109.221 160.362 111.318C161.909 118.404 166.755 119.126 174.951 119.786L186.469 120.689C181.908 106.625 181.768 97.5076 182.783 81.67L184.732 52.9722L170.159 53.1563C171.472 55.1452 172.596 56.2798 173.184 58.5675C173.386 58.4839 173.65 58.0965 173.762 58.2587C174.749 59.676 173.024 57.8182 177.634 56.4866C173.348 84.7474 175.794 64.3017 171.119 75.5873C168.857 81.0467 167.376 83.0787 164.079 87.4077C162.482 89.5056 161.2 90.563 158.842 91.6311L158.763 105.888L158.762 105.887Z" fill="#53322C"/>
<path fill-rule="evenodd" clip-rule="evenodd" d="M45.3786 39.476C43.7389 41.4287 44.5216 46.0467 44.3133 48.9534L49.9689 49.207L52.6716 49.1935L87.8317 49.156C91.9078 49.2665 90.3418 48.5717 91.832 50.4004C91.6578 48.4364 92.0318 49.2934 94.396 49.1914L100.201 49.1085C100.433 45.6033 100.952 42.9912 99.5841 39.9775C99.5798 39.969 98.9863 38.9753 98.7788 38.5114C97.0584 34.6605 98.0691 32.3522 92.5559 24.4429C89.7965 20.4844 87.9875 20.1282 84.1714 16.8396C80.3807 13.5731 77.7615 12.4646 71.6378 12.2904C73.1641 17.3368 72.4445 33.4621 72.0634 40.2098C75.8343 40.3203 85.6934 38.7607 87.8551 41.5853C87.1227 43.7682 90.747 43.4353 79.7737 43.346L50.3521 43.3142C48.9405 39.5462 49.3187 40.275 45.3786 39.4746V39.476Z" fill="#F37821"/>
<path fill-rule="evenodd" clip-rule="evenodd" d="M45.3786 39.476C49.3187 40.2764 48.9405 39.5469 50.3521 43.3156L79.7737 43.3474C90.747 43.4367 87.1227 43.7696 87.8551 41.5867C85.6934 38.7621 75.8343 40.3217 72.0634 40.2112C72.4438 33.4635 73.1634 17.3383 71.6378 12.2918C63.4232 13.0837 58.5659 17.3567 54.4445 21.3712C50.1268 25.5762 47.4425 31.7544 45.3786 39.476V39.476Z" fill="#F37821" fill-opacity="0.8"/>
<path fill-rule="evenodd" clip-rule="evenodd" d="M49.1586 92.6028C47.7045 95.1505 44.178 109.038 42.4484 112.041C44.1292 113.143 51.457 118.366 52.7836 120.031C51.542 121.526 47.8611 123.292 45.4303 124.186C45.5868 130.273 51.1623 138.113 52.0151 144H64.2045L55.8971 92.379L55.2313 87.754L49.1586 92.6035V92.6028Z" fill="#358B9A"/>
<path fill-rule="evenodd" clip-rule="evenodd" d="M91.2555 91.8563L82.9588 143.999H87.6348C88.3353 139.618 89.8935 135.5 92.2365 132.44C95.4046 128.302 97.142 127.483 100.012 124.013C97.9558 121.771 96.7694 122.63 94.8557 120.029C95.5073 119.225 95.1517 119.627 95.991 118.851L98.8935 116.649C99.0217 116.555 99.1967 116.431 99.3241 116.336C99.4516 116.24 99.6237 116.113 99.7498 116.016C101.271 114.838 103.155 113.323 104.635 111.963L98.3007 92.2006C97.6208 91.522 93.925 88.8781 92.155 87.5168L92.0863 87.9254L91.2562 91.8556L91.2555 91.8563Z" fill="#358B9A"/>
<path fill-rule="evenodd" clip-rule="evenodd" d="M67.2621 112.601C69.7361 120.194 72.4842 116.931 70.8707 127.072C69.9599 132.797 68.8613 138.217 68.146 144H79.3516C79.0265 138.813 77.8876 132.576 77.0079 127.232C76.0439 121.376 77.0398 118.067 80.273 113.474C79.4628 109.477 76.391 105.48 75.1154 101.368L73.021 101.645L67.2621 112.601V112.601Z" fill="#F37821"/>
<path fill-rule="evenodd" clip-rule="evenodd" d="M70.3119 98.3994C71.8942 100.24 72.3213 99.3144 73.021 101.645L75.1154 101.368C75.0382 99.8053 74.9029 100.774 76.0532 99.6516C76.425 99.2889 77.7452 98.3753 78.1234 98.0927C79.8842 96.7753 80.6605 96.2873 82.7966 94.7298C86.1496 92.2855 89.0988 90.2337 92.0863 87.9268L92.155 87.5182L91.303 75.7743C79.2099 86.7355 84.4511 85.6731 68.1056 85.319C64.5097 85.2411 62.994 83.6177 60.9712 82.2316C59.158 80.9893 60.2629 81.602 58.3392 80.7789L67.4852 93.8154C68.6234 95.3495 69.5009 96.2434 70.3126 98.4001L70.3119 98.3994Z" fill="#E4AC93"/>
<path fill-rule="evenodd" clip-rule="evenodd" d="M64.2044 143.999H68.146C68.8613 138.216 69.9606 132.797 70.8707 127.072C72.4842 116.931 69.7361 120.194 67.2621 112.6C66.2089 114.797 67.0914 113.971 65.2449 115.772C63.084 111.844 57.9603 94.0591 55.8964 92.3783L64.2037 143.999H64.2044Z" fill="#CCDCDB"/>
<path fill-rule="evenodd" clip-rule="evenodd" d="M80.2723 113.474C77.0391 118.067 76.0432 121.376 77.0072 127.232C77.8869 132.576 79.0265 138.812 79.3509 144H82.9588L91.2555 91.8571L86.7247 103.772C85.5164 107.295 83.5268 112.544 82.8129 116.115L80.2723 113.475V113.474Z" fill="#CCDCDB"/>
<path fill-rule="evenodd" clip-rule="evenodd" d="M100.012 124.013C102.237 123.838 104.093 122.444 106.24 121.511C107.265 117.676 108.966 114.591 110.152 109.759C111.135 105.757 111.628 100.628 111.901 96.4211L98.3007 92.2013L104.635 111.964C103.155 113.324 101.271 114.838 99.7498 116.016C99.6237 116.113 99.4516 116.241 99.3241 116.336C99.1967 116.432 99.0217 116.556 98.8935 116.649L95.991 118.852C95.1524 119.627 95.508 119.225 94.8557 120.03C96.7701 122.631 97.9558 121.772 100.012 124.013V124.013Z" fill="#13B1BD"/>
<path fill-rule="evenodd" clip-rule="evenodd" d="M75.1147 101.367C76.3903 105.479 79.4621 109.477 80.2723 113.474L82.8129 116.114C83.5268 112.543 85.5164 107.294 86.7247 103.771L91.2555 91.8556L92.0856 87.9254C89.0981 90.233 86.1489 92.2848 82.7959 94.7284C80.6598 96.2859 79.8835 96.7739 78.1227 98.0912C77.7452 98.3738 76.425 99.2868 76.0524 99.6502C74.9022 100.773 75.0375 99.8039 75.1147 101.366V101.367Z" fill="#FAFAFA"/>
<path fill-rule="evenodd" clip-rule="evenodd" d="M55.8964 92.3783C57.9603 94.0598 63.084 111.844 65.2449 115.772C67.0914 113.971 66.2082 114.797 67.2621 112.6L73.021 101.645C72.3213 99.3144 71.8942 100.239 70.3119 98.3986C67.9307 97.7314 57.1798 90.2974 55.2313 87.7526L55.8971 92.3776L55.8964 92.3783Z" fill="#FAFAFA"/>
<path fill-rule="evenodd" clip-rule="evenodd" d="M160.362 111.318C159.439 109.222 160.298 110.979 159.799 109.037C159.209 106.74 159.833 107.847 158.762 105.888C157.881 110.192 158.369 93.9401 158.369 92.8288C148.398 96.4948 151.522 96.0812 139.917 94.2694C140.762 95.4905 140.089 94.7163 141.045 95.7249L155.283 107.746C156.978 109.325 157.811 110.842 160.362 111.318H160.362Z" fill="#E4AC93"/>
<path fill-rule="evenodd" clip-rule="evenodd" d="M25.5037 143.999H28.6329C26.4939 137.147 25.9683 127.57 23.1707 121.629C22.8803 125.419 21.1974 131.095 21.5013 133.764C21.6875 135.402 24.5745 141.397 25.5037 143.999V143.999Z" fill="#358B9A"/>
<path fill-rule="evenodd" clip-rule="evenodd" d="M124.553 10.5091C124.466 12.4214 129.89 29.2464 131.294 32.0377L128.681 8.25323L124.552 10.5091H124.553Z" fill="#F37821"/>
<path fill-rule="evenodd" clip-rule="evenodd" d="M50.6262 52.0195C50.9888 54.9234 50.8075 55.8612 52.8976 57.2395L52.6716 49.1935L49.9689 49.207L50.6262 52.0195V52.0195Z" fill="#090709"/>
<path fill-rule="evenodd" clip-rule="evenodd" d="M93.9923 51.7879L94.396 49.1921C92.0318 49.2941 91.6578 48.4371 91.832 50.4011L91.8823 57.4598C93.4455 56.2486 93.539 54.0608 93.993 51.7879H93.9923Z" fill="#090709"/>
<path fill-rule="evenodd" clip-rule="evenodd" d="M208.124 133.571C210.36 136.322 211.708 138.795 215.812 140.193C226.601 143.868 236.815 130.971 228.143 120.782C227.549 120.085 227.229 119.551 226.563 118.75C222.739 114.152 214.593 101.675 209.623 99.6721C206.382 98.3661 204.017 99.0658 203.531 98.8831C203.176 98.6175 202.99 98.2676 202.68 97.8143C199.604 93.3175 194.319 86.7384 190.764 81.8952C190.725 81.8421 190.624 81.711 190.562 81.6175C190.304 81.2244 190.488 81.5283 190.31 81.1841C190.743 80.5325 191.003 80.4071 191.706 79.6939C194.743 76.6079 197.827 71.1089 199.219 67.0746C203.605 54.3632 200.927 41.3799 192.738 31.3274C190.917 29.0928 187.722 26.084 185.242 24.5053C185.075 24.399 185.033 24.387 184.854 24.2701L184.395 23.9486C183.235 23.1716 180.741 21.7473 179.491 21.3605L176.896 26.9779C176.632 27.5289 176.19 28.2789 176.034 28.9723C177.598 30.078 180.968 31.2296 183.749 34.3297C185.168 35.912 185.121 35.5933 186.85 37.8413C187.785 39.0574 188.622 40.4598 189.348 41.9444C192.636 48.6793 193.144 56.5914 190.334 63.8576C188.955 67.4216 187.365 69.6414 185.395 72.1203C184.536 73.2004 183.008 74.4541 182.019 75.3465C181.487 75.826 180.812 76.2885 180.13 76.7595C170.594 83.345 157.748 83.1354 147.863 75.7233C146.545 74.7353 145.64 73.6778 144.433 72.5538C143.53 71.7131 142.412 70.05 141.573 68.8042C137.904 63.3519 136.108 54.7343 138.1 47.318C140.063 40.0079 144.222 34.8885 148.858 31.6525C154.767 27.5282 160.957 25.8942 169.736 27.0501L173.406 19.1883C165.919 17.8333 161.43 17.482 153.742 19.7145C145.892 21.9944 138.939 27.269 134.275 33.9041C132.835 35.9517 131.237 38.8421 130.321 41.268C120.657 66.8763 139.64 91.8733 164.577 91.6899C175.468 91.6099 181.405 87.2837 182.505 87.135C184.314 89.2966 193.617 101.881 195.185 104.146C194.816 105.273 193.948 106.058 193.531 108.567C192.259 116.238 203.328 127.674 208.122 133.571L208.124 133.571ZM155.171 59.6625C154.371 60.2482 154.652 60.8779 155.06 61.9247C155.353 62.679 155.727 63.3519 156.167 63.961C156.967 65.0659 158.07 66.1687 159.541 66.8869C162.911 68.5329 166.82 67.8508 169.418 65.8988C170.481 65.0992 169.686 64.0942 169.236 63.9235C167.842 63.3944 166.306 66.6007 161.849 65.357C160.346 64.9377 159.425 64.2967 158.449 63.2556C157.837 62.6011 157.33 61.618 157.029 60.737C156.73 59.8644 156.342 58.8048 155.17 59.6625H155.171ZM150.583 61.1655C148.449 62.0402 151.317 69.3318 156.382 72.0814C161.192 74.6928 166.453 74.2437 170.575 71.3016C172.047 70.2505 170.799 68.7043 169.553 69.4799C166.314 71.4935 163.03 72.6374 158.879 70.9984C150.754 67.7914 152.929 60.2036 150.583 61.1655H150.583ZM188.603 85.3608C190.387 84.8473 191.822 85.9543 192.234 87.3439C192.723 88.997 191.544 90.5538 190.337 90.9072C186.452 92.044 185.095 86.37 188.603 85.3615V85.3608Z" fill="#262262"/>
</svg>
