<svg width="260" height="144" fill="none" xmlns="http://www.w3.org/2000/svg"><path fill-rule="evenodd" clip-rule="evenodd" d="m181.591 79.648.234 23.453-3.636.557-.015-23.528-5.852 1.54c-1.014 15.839-.874 24.956 3.686 39.02l1.925.416.074-16.502 45.695-.379-.044 39.775h7.432l1.445-15.35c1.906 2.274 5.807 12.033 6.658 15.35h19.999c-.656-2.66-.752-7.954.152-10.169-4.931-5.218-7.801-25.252-10.33-35.11-2.225-8.674-.853-10.343-9.127-13.48-3.882-1.471-13.248-5.692-16.6-5.645l.553 23.74-3.991-.011-.232-25.32-4.156-1.764-5.335 10.327c-.422.89-.437 1.052-.974 1.884-.556.862-.605.814-1.109 1.345-1.095-.68-2.35-1.47-3.111-2.129l-2.33-2.58-.984.161c-1.324 2.147-3.32 3.828-5.923 4.436-2.098-3.237-4.349-9.367-6.362-11.155.575-1.195-1.009-1.086 1.304-.776-1.811-.952-1.021-.751-1.882-1.306l.056-4.129-.497 4.213c-3.147.945-5.028.951-6.723 3.117Z" fill="#CCDCDB"/><path fill-rule="evenodd" clip-rule="evenodd" d="M110.146 120.038c8.139 7.135 47.876 9.374 54.345-.252-8.196-.66-13.042-1.381-14.589-8.468-2.551-.476-3.385-1.993-5.079-3.572l-14.239-12.02c-.955-1.01-.282-.235-1.127-1.457 11.605 1.812 8.481 2.226 18.452-1.44 0 1.11-.488 17.363.393 13.059l.079-14.257c2.358-1.068 3.639-2.125 5.237-4.224 3.297-4.328 4.778-6.36 7.04-11.82 4.676-11.285 2.229 9.16 6.515-19.1-4.609 1.332-2.885 3.19-3.871 1.772-.113-.162-.376.226-.578.31-.589-2.288-1.713-3.423-3.025-5.412l-47.429-.204c-1.929 6.037-1.841 4.12-3.204 4.39l-1.076.139c-.085-.18-.399-.006-.569.084.804 4.175.97 7.434 1.579 11.113.906 5.475 2.45 1.118 4.937 4.566.571.791 2.592 10.37 10.529 17.082 3.535 2.99 2.672 4.747 2.402 10.106-.158 3.127-.536 8.162-1.357 11.108-2.211 7.938-10.143 7.678-15.365 8.497Z" fill="#F8D09F"/><path fill-rule="evenodd" clip-rule="evenodd" d="M95.78 121.512c-2.147.933-4.003 2.327-6.228 2.502-2.87 3.47-4.608 4.289-7.776 8.427-2.343 3.06-3.9 7.177-4.601 11.559h120.379c-.767-3.556-1.397-5.337-2.945-8.388l-4.32-6.564c-2.695-3.42-8.028-5.642-12.356-7.942l-1.925-.415-11.518-.905c-6.468 9.626-46.205 7.387-54.344.252-6.079-.909-9.254.33-14.365 1.474ZM98.54 39.394c-2.27.593-1.203-.76-1.338 1.466l-.053 11.543 1.737.452 13.384.098 47.429.204 14.573-.184 2.853-.1.349-12.739c-.956-.601-1.711-.63-2.536-2.643-1.38-3.37-2.014-14.095-11.691-23.707C155.98 6.565 146.759-.426 135.655.02c1.856 1.328.491.484 1.373 1.617l-.159 38.483 19.673.004c2.936.3 3.224.933 2.919 3.914-3.915 1.266-45.385.522-53.175.353l-3.36-4.998h-4.387Z" fill="#F37821"/><path fill-rule="evenodd" clip-rule="evenodd" d="M177.933 121.106c4.328 2.3 9.661 4.522 12.356 7.942l4.32 6.564c1.548 3.05 2.178 4.832 2.945 8.388h26.104l.044-39.775-45.695.379-.075 16.502h.001Z" fill="#358B9A"/><path fill-rule="evenodd" clip-rule="evenodd" d="m118.222 8.253 2.612 23.785c-1.403-2.791-6.828-19.616-6.741-21.529-1.265 2.153-3.467 3.133-5.261 5.25-1.082 1.276-3.663 5.425-4.517 7.065-3.521 6.764-3.689 9.948-5.776 16.57l4.387-.001 3.36 4.998c7.791.169 49.26.913 53.175-.353.306-2.981.017-3.615-2.919-3.915l-19.673-.003.159-38.483c-.882-1.134.483-.289-1.373-1.617-3.773.255-7.111 1.024-10.278 2.55-3.639 1.753-5.06 3.101-7.155 5.683Z" fill="#F37821" fill-opacity=".8"/><path fill-rule="evenodd" clip-rule="evenodd" d="M101.441 96.422c-.273 4.207-.767 9.336-1.749 13.338-1.186 4.832-2.887 7.917-3.911 11.752 5.111-1.144 8.286-2.383 14.365-1.474 5.222-.819 13.154-.559 15.365-8.497.821-2.946 1.199-7.981 1.357-11.108.27-5.36 1.133-7.117-2.402-10.106-7.937-6.712-9.958-16.29-10.529-17.082-2.487-3.448-4.031.91-4.937-4.566-.609-3.68-.775-6.938-1.579-11.113.17-.09.484-.264.569-.084l1.076-.139c1.363-.27 1.275 1.647 3.204-4.39l-13.384-.098c1.797 13.167 2.873 30.253 2.555 43.567ZM148.302 105.888c1.071 1.959.447.852 1.037 3.149.499 1.942-.36.185.563 2.281 1.547 7.086 6.393 7.808 14.588 8.468l11.518.905c-4.56-14.065-4.7-23.182-3.686-39.02l1.95-28.698-14.573.184c1.312 1.99 2.436 3.124 3.025 5.411.202-.083.465-.47.578-.309.986 1.418-.738-.44 3.871-1.772-4.286 28.26-1.839 7.815-6.515 19.1-2.262 5.46-3.743 7.492-7.04 11.82-1.598 2.099-2.879 3.156-5.237 4.224l-.079 14.257Z" fill="#53322C"/><path fill-rule="evenodd" clip-rule="evenodd" d="m184.889 49.69-3.23-1.16 1.135 9.122c.855.34 1.481.335 2.08.543l1.841.823c-.798 8.122 2.403 6.439 2.096 13.301l-.056 4.13c.861.554.071.353 1.882 1.305 3.571 2.243 4.008 3.662 8.483 5.4-2.163-4.062-6.234-8.156-8.016-11.983 4.738 2.601 7.643 3.49 14.771 2.95 2.932-.221 6.984-4.645 8.643-7.334l.63-1.07c1.032-2.156.291-2.543.56-4.525.785-5.784.117-1.14 1.87-3.595 1.521-2.132.558-4.692 1.917-7.777-.993-1.27 1.584-1.606-1.924-.785l-1.844 4.723-.397-6.502-28.545.061.111 6.824c-1.681-1.586-1.422-1.386-2.007-4.45Z" fill="#F8D09F"/><path fill-rule="evenodd" clip-rule="evenodd" d="M180.786 39.944c-1.402 1.634-.606 4.493-1.127 7.338l4.733.21 2.393-.175 28.545-.06 2.467.153 4.247.037c-.768-8.245 1.138-1.873-1.874-9.997-1.264-3.407-1.885-5.742-4.068-8.35-.883-1.056-1.792-2.036-2.714-3.025-3.398-3.649-7.684-6.015-13.019-6.417l.529 20.891c6.54.82 10.227-1.287 11.598 1.764-3.19 1.662-21.795.7-26.97.723-3.206-1.601.062-1.64-4.74-3.092Z" fill="#F37821"/><path fill-rule="evenodd" clip-rule="evenodd" d="M180.786 39.944c4.802 1.451 1.534 1.49 4.74 3.092 5.175-.024 23.78.939 26.97-.723-1.371-3.051-5.058-.945-11.598-1.764l-.529-20.891c-5.881.738-9.046 3.293-12.714 6.62-4.02 3.648-5.697 8.014-6.869 13.666Z" fill="#F37821" fill-opacity=".8"/><path fill-rule="evenodd" clip-rule="evenodd" d="M199.12 83.154c.747 1.56.787 1.092 2.498 2.095l.984-.162c4.663-2.48 8.29-5.876 12.859-8.846-.795-3.844-.93-6.647-.313-10.523l-.63 1.07c-1.659 2.688-5.711 7.112-8.643 7.334-7.128.539-10.033-.35-14.771-2.95 1.782 3.826 5.853 7.92 8.016 11.982ZM149.902 111.318c-.923-2.096-.064-.339-.563-2.281-.59-2.297.034-1.19-1.037-3.149-.881 4.304-.393-11.948-.393-13.06-9.971 3.667-6.847 3.253-18.452 1.441.845 1.222.172.448 1.127 1.456l14.239 12.021c1.694 1.579 2.528 3.096 5.079 3.572Z" fill="#E4AC93"/><path fill-rule="evenodd" clip-rule="evenodd" d="M223.287 79.596c-1.908-1.66-1.167-1.334-3.67-1.591l.232 25.32 3.991.011-.554-23.74h.001ZM178.174 80.13l.016 23.528 3.635-.557-.234-23.452c-2.281-.337-.804-.3-3.417.481Z" fill="#358B9A"/><path fill-rule="evenodd" clip-rule="evenodd" d="M231.09 144h8.103c-.851-3.317-4.752-13.076-6.658-15.35L231.09 144Z" fill="#57B7DF"/><path fill-rule="evenodd" clip-rule="evenodd" d="M114.093 10.51c-.087 1.912 5.338 18.737 6.741 21.528l-2.612-23.785-4.129 2.257Z" fill="#F37821"/><path fill-rule="evenodd" clip-rule="evenodd" d="M201.618 85.25c-1.711-1.004-1.751-.536-2.498-2.096-4.475-1.738-4.912-3.157-8.483-5.4-2.313-.31-.729-.42-1.304.776 2.013 1.788 4.264 7.918 6.362 11.155 2.603-.609 4.599-2.289 5.923-4.436ZM202.602 85.087l2.33 2.581c.761.66 2.016 1.448 3.111 2.129.504-.53.553-.483 1.109-1.345.537-.832.552-.994.974-1.884l5.335-10.327c-4.569 2.97-8.196 6.365-12.859 8.846Z" fill="#FAFAFA"/><path fill-rule="evenodd" clip-rule="evenodd" d="M184.889 49.69c.585 3.065.326 2.865 2.007 4.45l-.111-6.823-2.393.176.497 2.197ZM217.571 49.035l.226-1.625-2.467-.154.397 6.502 1.844-4.723Z" fill="#090709"/><path fill-rule="evenodd" clip-rule="evenodd" d="M27.948 57.235c1.61-.555 29.152-.175 33.24-.148-.205 1.371 2.284 11.195 2.725 13.307.526 2.51 2.782 11.638 2.722 13.395l-44.384.006 5.697-26.56ZM8.786 84.46c.154.042 3.84-1.04 7.055-.125 1.018.29 2.34.699 3.16 1.121 1.129.58 1.684 1.277 2.558 1.738l-.402 1.677 46.556.049c-.636-2.33 1.45-3.31 4.104-4.21 2.256-.764 6.092-1.138 8.13-.163l.144-.454c-1.055-6.015-2.84-11.384-4.041-17.4-.586-2.935-1.434-5.875-2.111-8.771-.36-1.538-.684-2.74-.994-4.31-.234-1.186-.473-2.793-.963-3.849-.766-1.652-4.414-1.331-6.29-.883-2.923.697-3.915 1.968-5.232 2.706-1.182.662-31.028.37-31.48.235-.892-.268-1.85-1.84-5.175-2.78-1.578-.447-6.181-.96-6.805.564L8.786 84.46Z" fill="#EDEDED"/><path fill-rule="evenodd" clip-rule="evenodd" d="m22.251 83.795 44.383-.006c.06-1.757-2.196-10.886-2.72-13.395-.443-2.112-2.931-11.936-2.726-13.307-4.089-.027-31.63-.407-33.24.148l-5.697 26.56ZM8.786 84.46c-.89.763-.312 2.198.887 2.904.882.52 2.096 1.123 3.214 1.548 2.116.804 6.53 1.105 8.27-.041l.402-1.677c-.875-.461-1.43-1.157-2.558-1.738-.82-.422-2.142-.831-3.16-1.12-3.215-.916-6.901.166-7.055.124ZM67.713 88.92c1.537.274.076.58 3.99.568 2.799-.008 7.943-1.254 8.672-3.382.501-1.465-.204-1.91-.284-2.014l-.144.455c-2.038-.975-5.874-.601-8.13.164-2.654.9-4.74 1.878-4.104 4.209Z" fill="#9D9E9B"/><path fill-rule="evenodd" clip-rule="evenodd" d="M43.774 27.302c-1.784.117-3.341.143-5.122.354-1.905.224-3.048.662-4.628 1.023-9.586 1.965-18.922 9.24-23.247 14.728C5.237 50.438.643 59.316.656 71.608.669 83.462 5.073 93.135 10.689 99.91c5.38 6.49 14.939 13.38 23.451 14.824l4.847.959 3.291.347 4.156.455c.082.113 22.203 15.527 23.678 16.089-.515-2.973-6.065-17.479-6.382-20.598 5.979-2.215 12.152-7.803 16.286-12.915 4.678-5.784 7.45-12.427 8.885-20.382 1.016-5.633.538-12.477-.745-17.654-3.575-14.42-15.21-26.97-27.762-31.054-3.808-1.238-12.179-3.489-16.62-2.678ZM8.786 84.46 17 49.606c.624-1.525 5.227-1.012 6.805-.566 3.325.941 4.283 2.513 5.175 2.781.452.136 30.298.427 31.48-.235 1.317-.738 2.31-2.01 5.231-2.706 1.877-.448 5.525-.769 6.291.884.49 1.055.73 2.662.963 3.849.31 1.568.634 2.771.994 4.309.677 2.896 1.525 5.836 2.11 8.771 1.203 6.016 2.987 11.385 4.042 17.4.08.103.785.548.284 2.013-.729 2.128-5.874 3.374-8.673 3.382-3.913.011-2.453-.294-3.989-.568l-46.557-.049c-1.739 1.146-6.153.846-8.27.041a22.592 22.592 0 0 1-3.213-1.548c-1.199-.706-1.777-2.14-.887-2.904Z" fill="#F37821"/></svg>